<svg xmlns="http://www.w3.org/2000/svg" viewBox="0 0 523.66 100"><defs><style>.cls-1{fill:#fff;}.cls-2{fill:#af8249;}.cls-3{fill:#d6a348;}.cls-4{fill:#d9bd48;}</style></defs><g id="Layer_4" data-name="Layer 4"><polygon class="cls-1" points="103.1 8.16 53.17 91.84 153.17 91.84 103.1 8.16"/><polygon class="cls-2" points="146.93 88.3 125.02 51.68 103.16 88.3 146.93 88.3"/><polygon class="cls-3" points="103.16 88.3 81.25 51.68 59.4 88.3 103.16 88.3"/><polygon class="cls-4" points="125.02 51.68 103.1 15.06 81.25 51.68 125.02 51.68"/><path class="cls-1" d="M166.17,55.62a26.71,26.71,0,0,1-7.45-1,17.57,17.57,0,0,1-5.59-2.59,16.2,16.2,0,0,1-3.74-3.79,15.28,15.28,0,0,1-2.19-4.51,17.41,17.41,0,0,1-.67-4.84,16,16,0,0,1,2.94-9.4A19.2,19.2,0,0,1,157.25,23a24.26,24.26,0,0,1,10.42-2.27A30.82,30.82,0,0,1,178.89,23l.45,10h-1.45l-4.89-8a10.12,10.12,0,0,0-6-2.14,9,9,0,0,0-7.68,4c-1.93,2.7-2.89,6.2-2.89,10.53q0,7.77,3.22,11.91a9.76,9.76,0,0,0,8,4.14,9.6,9.6,0,0,0,4.09-.85V42l-5.59-.8V39.06h16.66v2l-2.79.69V52.82l-1.9.6A43.42,43.42,0,0,1,166.17,55.62Z"/><path class="cls-1" d="M203.32,55.42l-.6-4c-2.72,2.79-5.52,4.19-8.37,4.19a7.6,7.6,0,0,1-5.24-1.82c-1.36-1.22-2-3.15-2-5.81V34.27l-3-1.49v-1.1l11.12-1.94V46.29q0,4.64,4,4.64a5.89,5.89,0,0,0,3.49-1.1V34.07l-3.19-1.44v-1.1l11.27-1.94v22l3.19.79v1.4Z"/><path class="cls-1" d="M222.27,55.57a6.58,6.58,0,0,1-4.76-1.8,6,6,0,0,1-1.87-4.54,5.63,5.63,0,0,1,2-4.61,17.15,17.15,0,0,1,6.73-2.77l4.74-1.14V36.82A6.62,6.62,0,0,0,228,33.25a3.33,3.33,0,0,0-2.82-1.37,3.06,3.06,0,0,0-1.89.5l-.15,5.93a8.52,8.52,0,0,1-3.44.6,3.72,3.72,0,0,1-2.45-.75,2.65,2.65,0,0,1-.89-2.14c0-1.56,1.23-3.05,3.71-4.46a16.7,16.7,0,0,1,8.45-2.12q8.58,0,8.58,7.93V50.18a2.13,2.13,0,0,0,.37,1.52,2.34,2.34,0,0,0,1.48.33h1.79v1.24a13.84,13.84,0,0,1-6.78,2.2c-2.86,0-4.37-1.37-4.54-4.09h-.2Q226.31,55.57,222.27,55.57Zm4.29-4.29a3.62,3.62,0,0,0,2.59-1.2V42.45l-1.69.55q-4.29,1.35-4.29,4.59a3.88,3.88,0,0,0,.92,2.67A3.18,3.18,0,0,0,226.56,51.28Z"/><path class="cls-1" d="M241.42,54.82v-1.7l3-.75V35.12l-3-2v-.9l10-2.84h.3l.3,6.63h.2l.75-1.55a12.1,12.1,0,0,1,2.66-3.86A5,5,0,0,1,259,29.44a4.09,4.09,0,0,1,2.77,1A3.54,3.54,0,0,1,263,33.28a4,4,0,0,1-1.27,3.09A6,6,0,0,1,258,37.66l-2.79-2.34a4.55,4.55,0,0,0-1.49,1.2,5.34,5.34,0,0,0-1.15,2V52.37l4.44.75v1.7Z"/><path class="cls-1" d="M277.17,21.16v-.85l12-2.79V51.63l2.89.74v1.4l-10,1.65-.7-3.19A9.79,9.79,0,0,1,274,55.57a9.27,9.27,0,0,1-7.36-3.37,12.79,12.79,0,0,1-2.86-8.6,12.54,12.54,0,0,1,4.44-9.9,15.65,15.65,0,0,1,10.67-3.86c.49,0,1.23.05,2.19.15V23.1Zm1.55,30.32a4.57,4.57,0,0,0,2.39-.7V34.62q-1.69-3-4.29-3a4.22,4.22,0,0,0-3.54,2.15q-1.44,2.14-1.44,6.58a14.74,14.74,0,0,0,2,8Q275.77,51.48,278.72,51.48Z"/><path class="cls-1" d="M294.17,54.82v-1.7l3.2-.75V35.12l-3.1-2.24V32l11.22-2.54V52.37l3.19.75v1.7Zm7.28-28.92a3.89,3.89,0,0,1-2.89-1.23,4.17,4.17,0,0,1,0-5.83,3.91,3.91,0,0,1,2.89-1.22,4.11,4.11,0,0,1,2.95,1.22,4.07,4.07,0,0,1,0,5.83A4,4,0,0,1,301.45,25.9Z"/><path class="cls-1" d="M317.16,55.57a6.58,6.58,0,0,1-4.76-1.8,6,6,0,0,1-1.87-4.54,5.63,5.63,0,0,1,2-4.61,17.15,17.15,0,0,1,6.73-2.77L324,40.71V36.82a6.62,6.62,0,0,0-1.17-3.57,3.33,3.33,0,0,0-2.82-1.37,3.06,3.06,0,0,0-1.89.5L318,38.31a8.52,8.52,0,0,1-3.44.6,3.72,3.72,0,0,1-2.45-.75,2.65,2.65,0,0,1-.89-2.14c0-1.56,1.23-3.05,3.71-4.46a16.7,16.7,0,0,1,8.45-2.12q8.58,0,8.58,7.93V50.18a2.13,2.13,0,0,0,.37,1.52,2.34,2.34,0,0,0,1.48.33h1.79v1.24a13.84,13.84,0,0,1-6.78,2.2c-2.86,0-4.37-1.37-4.54-4.09h-.2Q321.2,55.57,317.16,55.57Zm4.29-4.29a3.62,3.62,0,0,0,2.59-1.2V42.45l-1.69.55q-4.29,1.35-4.29,4.59a3.88,3.88,0,0,0,.92,2.67A3.18,3.18,0,0,0,321.45,51.28Z"/><path class="cls-1" d="M336.31,54.82v-1.7l3-.75V35.12l-3-2v-.9l9.87-2.84h.25l.45,4.68h.15q4.44-4.58,8.88-4.58a7.08,7.08,0,0,1,5.31,1.92c1.24,1.28,1.87,3.21,1.87,5.81v15.2l3.09.8v1.65H352.41v-1.7l2.65-.75V38.86a5.51,5.51,0,0,0-1.12-3.44,3.6,3.6,0,0,0-3-1.25,6.33,6.33,0,0,0-3.49,1.25V52.37l2.64.75v1.7Z"/><path class="cls-1" d="M395.25,20.76a18.77,18.77,0,0,1,13,4.71,15.75,15.75,0,0,1,5.26,12.29A16.52,16.52,0,0,1,408,50.63a19.51,19.51,0,0,1-25.78.25,16,16,0,0,1-5.28-12.52,16.28,16.28,0,0,1,5.51-12.56A18.42,18.42,0,0,1,395.25,20.76Zm.7,32.81q3.74,0,5.85-3.76t2.12-10.5a24.11,24.11,0,0,0-2.64-11.62c-1.76-3.26-4.06-4.88-6.88-4.88a6.49,6.49,0,0,0-5.86,3.71q-2.12,3.72-2.12,10.5a23.51,23.51,0,0,0,2.72,11.76C391,52,393.22,53.57,396,53.57Z"/><path class="cls-1" d="M415.94,54.82v-1.7l3-.75V35.12l-3-2v-.9l9.87-2.84h.25l.45,4.68h.15q4.44-4.58,8.88-4.58a7.08,7.08,0,0,1,5.31,1.92c1.24,1.28,1.87,3.21,1.87,5.81v15.2l3.09.8v1.65H432.05v-1.7l2.64-.75V38.86a5.45,5.45,0,0,0-1.12-3.44,3.6,3.6,0,0,0-3-1.25,6.33,6.33,0,0,0-3.49,1.25V52.37l2.64.75v1.7Z"/><path class="cls-1" d="M459,55.47a10.88,10.88,0,0,1-8.55-3.69,13.27,13.27,0,0,1-3.26-9.13A12.76,12.76,0,0,1,451,33.28a12.07,12.07,0,0,1,8.73-3.89q9.12,0,10.37,10.77H454.19A9.84,9.84,0,0,0,457,47.39,8.87,8.87,0,0,0,463.36,50a12.55,12.55,0,0,0,6.33-2.14l.8.94Q465.55,55.47,459,55.47Zm-.84-24a3.1,3.1,0,0,0-2.67,1.72,11,11,0,0,0-1.27,5.11h7.92a12.42,12.42,0,0,0-1.27-5A3,3,0,0,0,458.13,31.48Z"/><path class="cls-3" d="M165.91,77V64.67h4.36a5.9,5.9,0,0,1,4.29,1.65,6,6,0,0,1,1.69,4.53,5.92,5.92,0,0,1-1.7,4.5,6,6,0,0,1-4.3,1.63Zm4.27-1.91A3.8,3.8,0,0,0,173,74a4.16,4.16,0,0,0,1.1-3.13A4.33,4.33,0,0,0,173,67.68a3.78,3.78,0,0,0-2.79-1.1H168v8.49Z"/><path class="cls-3" d="M178.44,77V64.67H186v2h-5.52v3.26h5v1.89h-5V75H186v2Z"/><path class="cls-3" d="M193.49,66.63V77h-2.08V66.63h-4v-2H197.5v2Z"/><path class="cls-3" d="M199.2,77V64.67h7.6v2h-5.52v3.26h5v1.89h-5V75h5.52v2Z"/><path class="cls-3" d="M210.32,75.49a6.84,6.84,0,0,1,0-9.31,6.08,6.08,0,0,1,4.36-1.77,5.72,5.72,0,0,1,3.65,1.13,5.28,5.28,0,0,1,1.89,2.86l-2,.66a3.54,3.54,0,0,0-1.19-1.94,3.61,3.61,0,0,0-2.38-.75,4,4,0,0,0-2.86,1.18,4.37,4.37,0,0,0-1.2,3.28,4.32,4.32,0,0,0,1.2,3.24,4,4,0,0,0,2.88,1.17,3.56,3.56,0,0,0,2.37-.78,3.92,3.92,0,0,0,1.29-1.92l1.91.62a5.49,5.49,0,0,1-1.9,2.9,5.61,5.61,0,0,1-3.67,1.18A6.12,6.12,0,0,1,210.32,75.49Z"/><path class="cls-3" d="M227.11,66.63V77H225V66.63h-4v-2h10.09v2Z"/><path class="cls-1" d="M237.12,79.63V63.11h1.71V79.63Z"/><path class="cls-4" d="M246.08,77V64.67h2.12V77Z"/><path class="cls-4" d="M251.15,77V64.67h4.35a5.91,5.91,0,0,1,4.3,1.65,6,6,0,0,1,1.69,4.53,5.92,5.92,0,0,1-1.7,4.5,6,6,0,0,1-4.3,1.63Zm4.27-1.91a3.8,3.8,0,0,0,2.8-1.09,4.16,4.16,0,0,0,1.1-3.13,4.33,4.33,0,0,0-1.09-3.17,3.78,3.78,0,0,0-2.79-1.1h-2.21v8.49Z"/><path class="cls-4" d="M263.68,77V64.67h7.6v2h-5.52v3.26h5v1.89h-5V75h5.52v2Z"/><path class="cls-4" d="M281.94,77l-6.08-9.32V77h-2.08V64.67h2.66L282,73.4V64.67h2.08V77Z"/><path class="cls-4" d="M291.88,66.63V77H289.8V66.63h-4v-2h10.08v2Z"/><path class="cls-4" d="M297.59,77V64.67h2.12V77Z"/><path class="cls-4" d="M302.66,77V64.67h7.66v2h-5.57v3.46h5V72h-5v5Z"/><path class="cls-4" d="M311.12,64.67h2.46l2.95,5.16,3-5.16h2.34l-4.34,7.1V77h-2.08V71.77Z"/><path class="cls-1" d="M327.79,79.63V63.11h1.71V79.63Z"/><path class="cls-2" d="M337.82,75.49a6.84,6.84,0,0,1,0-9.31,6.08,6.08,0,0,1,4.36-1.77,5.72,5.72,0,0,1,3.65,1.13,5.22,5.22,0,0,1,1.89,2.86l-2,.66a3.43,3.43,0,0,0-3.58-2.69,3.91,3.91,0,0,0-2.85,1.18,5,5,0,0,0,0,6.52,4,4,0,0,0,2.88,1.17,3.61,3.61,0,0,0,2.38-.78,4,4,0,0,0,1.28-1.92l1.91.62a5.49,5.49,0,0,1-1.9,2.9,5.61,5.61,0,0,1-3.67,1.18A6.12,6.12,0,0,1,337.82,75.49Z"/><path class="cls-2" d="M349.92,67.39a5.85,5.85,0,0,1,2.3-2.23,6.58,6.58,0,0,1,6.1,0,5.94,5.94,0,0,1,2.31,2.23,6.92,6.92,0,0,1,0,6.86,5.83,5.83,0,0,1-2.31,2.24,6.58,6.58,0,0,1-6.1,0,5.75,5.75,0,0,1-2.3-2.24,7,7,0,0,1,0-6.86Zm2.45,6.7a4.19,4.19,0,0,0,5.81,0,5,5,0,0,0,0-6.54,4.17,4.17,0,0,0-5.81,0,5,5,0,0,0,0,6.54Z"/><path class="cls-2" d="M375.21,77V67.92L371.38,77h-1.81l-3.8-9v9h-2V64.67h2.78l4,9.39,3.94-9.39h2.83V77Z"/><path class="cls-2" d="M391.7,77V67.92L387.87,77h-1.81l-3.8-9v9h-2V64.67H383l4,9.39,3.94-9.39h2.83V77Z"/><path class="cls-2" d="M397.86,76a4.37,4.37,0,0,1-1.28-3.35v-8h2.06v7.9a2.8,2.8,0,0,0,.67,2,2.43,2.43,0,0,0,1.85.7,2.45,2.45,0,0,0,1.86-.69,2.81,2.81,0,0,0,.66-2v-7.9h2.08v8A4.34,4.34,0,0,1,404.47,76a5.15,5.15,0,0,1-6.61,0Z"/><path class="cls-2" d="M416.73,77l-6.07-9.32V77h-2.09V64.67h2.66l5.59,8.73V64.67h2.08V77Z"/><path class="cls-2" d="M421.85,77V64.67H424V77Z"/><path class="cls-2" d="M428,75.49a6.84,6.84,0,0,1,0-9.31,6.08,6.08,0,0,1,4.36-1.77A5.72,5.72,0,0,1,436,65.54a5.28,5.28,0,0,1,1.89,2.86l-2,.66a3.54,3.54,0,0,0-1.19-1.94,3.63,3.63,0,0,0-2.38-.75,4,4,0,0,0-2.86,1.18,4.37,4.37,0,0,0-1.2,3.28,4.32,4.32,0,0,0,1.2,3.24,4,4,0,0,0,2.88,1.17,3.56,3.56,0,0,0,2.37-.78,3.92,3.92,0,0,0,1.29-1.92l1.91.62a5.49,5.49,0,0,1-1.9,2.9,5.61,5.61,0,0,1-3.67,1.18A6.12,6.12,0,0,1,428,75.49Z"/><path class="cls-2" d="M446.9,73.89h-5.21L440.54,77h-2.2l4.79-12.31h2.41L450.33,77h-2.27ZM442.42,72h3.75l-1.88-5Z"/><path class="cls-2" d="M455.68,66.63V77H453.6V66.63h-4v-2h10.09v2Z"/><path class="cls-2" d="M461.39,77V64.67H469v2h-5.52v3.26h5v1.89h-5V75H469v2Z"/></g></svg>