<svg xmlns="http://www.w3.org/2000/svg" viewBox="0 0 523.66 100"><defs><style>.cls-1{fill:#fff;}.cls-2{fill:#af8249;}.cls-3{fill:#d6a348;}.cls-4{fill:#d9bd48;}</style></defs><g id="Layer_4" data-name="Layer 4"><polygon class="cls-1" points="52.88 14.85 9 88.38 96.88 88.38 52.88 14.85"/><polygon class="cls-2" points="90.04 84.35 71.46 53.3 52.94 84.35 90.04 84.35"/><polygon class="cls-3" points="52.94 84.35 34.36 53.3 15.84 84.35 52.94 84.35"/><polygon class="cls-4" points="71.46 53.3 52.89 22.26 34.36 53.3 71.46 53.3"/><path class="cls-1" d="M112.52,59.3A35.61,35.61,0,0,1,102.67,58a23.4,23.4,0,0,1-7.38-3.43,21.39,21.39,0,0,1-5-5,19.88,19.88,0,0,1-2.89-6,22.83,22.83,0,0,1-.89-6.39,21.19,21.19,0,0,1,3.88-12.42,25.42,25.42,0,0,1,10.28-8.57,32,32,0,0,1,13.77-3,40.68,40.68,0,0,1,14.83,2.9l.59,13.18H128l-6.46-10.61a13.36,13.36,0,0,0-8-2.83,11.9,11.9,0,0,0-10.15,5.34q-3.81,5.33-3.82,13.9,0,10.27,4.25,15.75a13.14,13.14,0,0,0,16,4.35V41.31l-7.38-1.05V37.43h22v2.63l-3.69.92V55.61l-2.5.79Q118.64,59.31,112.52,59.3Z"/><path class="cls-1" d="M161.61,59l-.79-5.34q-5.41,5.53-11.07,5.54a10,10,0,0,1-6.92-2.41q-2.7-2.4-2.7-7.68v-18l-4-2V27.67L150.8,25.1V47q0,6.14,5.27,6.13a7.78,7.78,0,0,0,4.62-1.45V30.84l-4.22-1.92V27.48l14.89-2.57V54l4.22,1v1.85Z"/><path class="cls-1" d="M186.65,59.24a8.7,8.7,0,0,1-6.3-2.38,8,8,0,0,1-2.47-6,7.43,7.43,0,0,1,2.71-6.1q2.7-2.21,8.89-3.65l6.26-1.52V34.46a8.71,8.71,0,0,0-1.55-4.71,4.38,4.38,0,0,0-3.72-1.81,4,4,0,0,0-2.5.66l-.2,7.84a11.39,11.39,0,0,1-4.55.79,4.89,4.89,0,0,1-3.23-1,3.47,3.47,0,0,1-1.18-2.83c0-2.07,1.63-4,4.91-5.9a22.07,22.07,0,0,1,11.16-2.8q11.34,0,11.34,10.47V52.12a2.79,2.79,0,0,0,.49,2,3.1,3.1,0,0,0,1.95.43H211V56.2a18.29,18.29,0,0,1-9,2.9q-5.67,0-6-5.4h-.26Q192,59.24,186.65,59.24Zm5.66-5.67A4.8,4.8,0,0,0,195.74,52V41.91l-2.24.72q-5.67,1.78-5.67,6.06a5.08,5.08,0,0,0,1.22,3.53A4.19,4.19,0,0,0,192.31,53.57Z"/><path class="cls-1" d="M212,58.25V56l4-1V32.22L212,29.52V28.33l13.24-3.75h.4l.39,8.76h.27l1-2a16,16,0,0,1,3.53-5.11,6.51,6.51,0,0,1,4.38-1.48,5.38,5.38,0,0,1,3.66,1.35,4.69,4.69,0,0,1,1.55,3.72,5.24,5.24,0,0,1-1.68,4.09,7.85,7.85,0,0,1-4.91,1.71l-3.69-3.1a6,6,0,0,0-2,1.58,7.39,7.39,0,0,0-1.52,2.64V55l5.87,1v2.24Z"/><path class="cls-1" d="M259.2,13.77V12.65L275.08,9V54l3.82,1v1.84L265.65,59l-.92-4.22A12.93,12.93,0,0,1,255,59.24a12.19,12.19,0,0,1-9.71-4.45,16.92,16.92,0,0,1-3.79-11.37,16.57,16.57,0,0,1,5.86-13.08,20.76,20.76,0,0,1,14.1-5.1c.66,0,1.63.06,2.9.19V16.34Zm2,40.06a5.93,5.93,0,0,0,3.16-.92V31.56c-1.49-2.64-3.38-3.95-5.67-3.95a5.54,5.54,0,0,0-4.67,2.83c-1.28,1.89-1.91,4.79-1.91,8.7a19.52,19.52,0,0,0,2.6,10.51C256.48,52.44,258.65,53.83,261.24,53.83Z"/><path class="cls-1" d="M281.66,58.25V56l4.22-1V32.22l-4.08-3V28.07l14.82-3.36V55l4.22,1v2.24ZM291.28,20a5.16,5.16,0,0,1-3.82-1.62,5.48,5.48,0,0,1,0-7.7,5.16,5.16,0,0,1,3.82-1.62,5.36,5.36,0,0,1,3.89,1.62,5.19,5.19,0,0,1,1.65,3.85,5.27,5.27,0,0,1-1.61,3.85A5.35,5.35,0,0,1,291.28,20Z"/><path class="cls-1" d="M312,59.24a8.66,8.66,0,0,1-6.29-2.38,7.94,7.94,0,0,1-2.47-6,7.45,7.45,0,0,1,2.7-6.1q2.7-2.21,8.89-3.65l6.26-1.52V34.46a8.71,8.71,0,0,0-1.55-4.71,4.38,4.38,0,0,0-3.72-1.81,4,4,0,0,0-2.5.66l-.2,7.84a11.39,11.39,0,0,1-4.55.79,4.91,4.91,0,0,1-3.23-1,3.47,3.47,0,0,1-1.18-2.83c0-2.07,1.63-4,4.91-5.9a22.09,22.09,0,0,1,11.17-2.8q11.33,0,11.33,10.47V52.12a2.84,2.84,0,0,0,.49,2,3.1,3.1,0,0,0,1.95.43h2.37V56.2a18.29,18.29,0,0,1-9,2.9q-5.67,0-6-5.4h-.26Q317.38,59.24,312,59.24Zm5.67-5.67A4.78,4.78,0,0,0,321.13,52V41.91l-2.24.72c-3.78,1.19-5.66,3.21-5.66,6.06a5.08,5.08,0,0,0,1.21,3.53A4.2,4.2,0,0,0,317.71,53.57Z"/><path class="cls-1" d="M337.34,58.25V56l4-1V32.22l-3.95-2.7V28.33l13-3.75h.33l.59,6.19h.2c3.91-4,7.81-6.06,11.73-6.06q4.54,0,7,2.53c1.65,1.7,2.47,4.25,2.47,7.68V55l4.09,1v2.18H358.63V56l3.49-1V37.16a7.27,7.27,0,0,0-1.48-4.55,4.72,4.72,0,0,0-4-1.64A8.3,8.3,0,0,0,352,32.61V55l3.49,1v2.24Z"/><path class="cls-1" d="M415.23,13.24a24.77,24.77,0,0,1,17.16,6.23q7,6.23,6.95,16.24a21.81,21.81,0,0,1-7.31,17A25.8,25.8,0,0,1,398,53q-7-6.26-7-16.54a21.56,21.56,0,0,1,7.28-16.6A24.35,24.35,0,0,1,415.23,13.24Zm.92,43.36q4.94,0,7.74-5t2.8-13.88A31.81,31.81,0,0,0,423.2,22.4q-3.49-6.45-9.09-6.46-5,0-7.74,4.91t-2.81,13.87q0,9.22,3.6,15.55T416.15,56.6Z"/><path class="cls-1" d="M442.57,58.25V56l4-1V32.22l-3.95-2.7V28.33l13.05-3.75H456l.6,6.19h.2q5.85-6.06,11.72-6.06c3,0,5.37.84,7,2.53S478,31.49,478,34.92V55l4.09,1v2.18H463.86V56l3.49-1V37.16a7.27,7.27,0,0,0-1.48-4.55,4.72,4.72,0,0,0-4-1.64,8.3,8.3,0,0,0-4.61,1.64V55l3.49,1v2.24Z"/><path class="cls-1" d="M499.44,59.1a14.35,14.35,0,0,1-11.3-4.87,17.53,17.53,0,0,1-4.32-12.06A16.88,16.88,0,0,1,489,29.78a16,16,0,0,1,11.53-5.14q12.06,0,13.71,14.23H493.11q.13,6.14,3.69,9.56a11.78,11.78,0,0,0,8.44,3.43q3.69,0,8.36-2.84l1.06,1.25Q508.14,59.1,499.44,59.1Zm-1.12-31.69a4.13,4.13,0,0,0-3.53,2.27,14.76,14.76,0,0,0-1.68,6.76h10.48a16.52,16.52,0,0,0-1.68-6.56A4,4,0,0,0,498.32,27.41Z"/><path class="cls-3" d="M112.17,87.53V71.27h5.76a7.8,7.8,0,0,1,5.67,2.18,8,8,0,0,1,2.24,6,7.56,7.56,0,0,1-7.94,8.09ZM117.81,85a5.11,5.11,0,0,0,3.71-1.43A5.57,5.57,0,0,0,123,79.44a5.71,5.71,0,0,0-1.44-4.19,5,5,0,0,0-3.7-1.46h-2.91V85Z"/><path class="cls-3" d="M128.73,87.53V71.27h10.05v2.57h-7.3v4.31h6.61v2.5h-6.61V85h7.3v2.57Z"/><path class="cls-3" d="M148.61,73.86V87.53h-2.75V73.86h-5.27V71.27h13.32v2.59Z"/><path class="cls-3" d="M156.16,87.53V71.27h10.05v2.57h-7.3v4.31h6.61v2.5h-6.61V85h7.3v2.57Z"/><path class="cls-3" d="M170.85,85.56a9,9,0,0,1,0-12.29,8,8,0,0,1,5.75-2.34,7.53,7.53,0,0,1,4.83,1.49A6.92,6.92,0,0,1,184,76.2l-2.59.87a4.71,4.71,0,0,0-1.59-2.57,4.79,4.79,0,0,0-3.14-1,5.2,5.2,0,0,0-3.77,1.55,5.78,5.78,0,0,0-1.59,4.34,5.69,5.69,0,0,0,1.58,4.28,5.24,5.24,0,0,0,3.8,1.55,4.81,4.81,0,0,0,3.15-1,5.23,5.23,0,0,0,1.69-2.55l2.53.83a7.28,7.28,0,0,1-2.51,3.83,7.46,7.46,0,0,1-4.86,1.56A8.09,8.09,0,0,1,170.85,85.56Z"/><path class="cls-3" d="M193,73.86V87.53h-2.75V73.86H185V71.27h13.33v2.59Z"/><path class="cls-1" d="M206.28,91V69.21h2.24V91Z"/><path class="cls-4" d="M218.11,87.53V71.27h2.8V87.53Z"/><path class="cls-4" d="M224.81,87.53V71.27h5.75a7.81,7.81,0,0,1,5.68,2.18,8,8,0,0,1,2.24,6,7.56,7.56,0,0,1-7.94,8.09ZM230.45,85a5.07,5.07,0,0,0,3.7-1.43,5.57,5.57,0,0,0,1.46-4.14,5.71,5.71,0,0,0-1.44-4.19,5,5,0,0,0-3.7-1.46h-2.91V85Z"/><path class="cls-4" d="M241.37,87.53V71.27h10v2.57h-7.29v4.31h6.6v2.5h-6.6V85h7.29v2.57Z"/><path class="cls-4" d="M265.5,87.53l-8-12.31V87.53h-2.75V71.27h3.5l7.39,11.54V71.27h2.75V87.53Z"/><path class="cls-4" d="M278.64,73.86V87.53h-2.75V73.86h-5.28V71.27h13.33v2.59Z"/><path class="cls-4" d="M286.18,87.53V71.27H289V87.53Z"/><path class="cls-4" d="M292.88,87.53V71.27H303v2.59h-7.37v4.57h6.61V81h-6.61v6.56Z"/><path class="cls-4" d="M304.05,71.27h3.26l3.9,6.81,3.92-6.81h3.1l-5.74,9.38v6.88h-2.75V80.65Z"/><path class="cls-1" d="M326.09,91V69.21h2.25V91Z"/><path class="cls-2" d="M339.34,85.56a9,9,0,0,1,0-12.29,8,8,0,0,1,5.76-2.34A7.55,7.55,0,0,1,350,72.42a6.85,6.85,0,0,1,2.48,3.78l-2.59.87a4.69,4.69,0,0,0-1.58-2.57,4.79,4.79,0,0,0-3.14-1,5.2,5.2,0,0,0-3.77,1.55,6.64,6.64,0,0,0,0,8.62,5.28,5.28,0,0,0,3.81,1.55,4.77,4.77,0,0,0,3.14-1,5.25,5.25,0,0,0,1.7-2.55l2.52.83A7.16,7.16,0,0,1,350,86.32a7.41,7.41,0,0,1-4.85,1.56A8.05,8.05,0,0,1,339.34,85.56Z"/><path class="cls-2" d="M355.32,74.86a7.81,7.81,0,0,1,3-3,8.82,8.82,0,0,1,8.08,0,8,8,0,0,1,3.05,3,9.24,9.24,0,0,1,0,9.07,7.93,7.93,0,0,1-3.05,3,8.74,8.74,0,0,1-8.08,0,7.77,7.77,0,0,1-3-3,9.3,9.3,0,0,1,0-9.07Zm3.25,8.85a5.52,5.52,0,0,0,7.67,0,6.57,6.57,0,0,0,0-8.64,5.52,5.52,0,0,0-7.67,0,6.6,6.6,0,0,0,0,8.64Z"/><path class="cls-2" d="M388.75,87.53v-12l-5.07,12H381.3l-5-11.92V87.53h-2.69V71.27h3.67l5.28,12.41,5.2-12.41h3.74V87.53Z"/><path class="cls-2" d="M410.54,87.53v-12l-5.07,12h-2.38l-5-11.92V87.53h-2.69V71.27h3.67l5.28,12.41,5.2-12.41h3.74V87.53Z"/><path class="cls-2" d="M418.68,86.29A5.74,5.74,0,0,1,417,81.87V71.27h2.73V81.71a3.64,3.64,0,0,0,.88,2.62,3.71,3.71,0,0,0,4.9,0,3.68,3.68,0,0,0,.87-2.63V71.27h2.75v10.6a5.72,5.72,0,0,1-1.71,4.42,6.79,6.79,0,0,1-8.73,0Z"/><path class="cls-2" d="M443.62,87.53l-8-12.31V87.53h-2.75V71.27h3.51l7.38,11.54V71.27h2.75V87.53Z"/><path class="cls-2" d="M450.38,87.53V71.27h2.8V87.53Z"/><path class="cls-2" d="M458.49,85.56a9,9,0,0,1,0-12.29,8,8,0,0,1,5.76-2.34,7.53,7.53,0,0,1,4.83,1.49,6.92,6.92,0,0,1,2.49,3.78l-2.59.87a4.71,4.71,0,0,0-1.59-2.57,4.79,4.79,0,0,0-3.14-1,5.2,5.2,0,0,0-3.77,1.55,5.78,5.78,0,0,0-1.6,4.34,5.7,5.7,0,0,0,1.59,4.28,5.24,5.24,0,0,0,3.8,1.55,4.81,4.81,0,0,0,3.15-1,5.23,5.23,0,0,0,1.69-2.55l2.53.83a7.28,7.28,0,0,1-2.51,3.83,7.46,7.46,0,0,1-4.86,1.56A8.09,8.09,0,0,1,458.49,85.56Z"/><path class="cls-2" d="M483.48,83.45H476.6l-1.52,4.08h-2.91l6.33-16.26h3.19L488,87.53h-3Zm-5.92-2.55h5L480,74.25Z"/><path class="cls-2" d="M495.09,73.86V87.53h-2.76V73.86h-5.27V71.27h13.32v2.59Z"/><path class="cls-2" d="M502.63,87.53V71.27h10v2.57h-7.3v4.31H512v2.5h-6.61V85h7.3v2.57Z"/></g></svg>