<svg xmlns="http://www.w3.org/2000/svg" viewBox="0 0 1817.79 547.42"><defs><style>.cls-1{fill:#fff;}.cls-2{fill:#af8249;}.cls-3{fill:#d6a348;}.cls-4{fill:#d9bd48;}</style></defs><g id="Layer_2" data-name="Layer 2"><g id="Layer_4" data-name="Layer 4"><polygon class="cls-1" points="326.69 0 0 547.42 654.25 547.42 326.69 0"/><polygon class="cls-2" points="624.72 530.9 475.72 281.89 327.12 530.9 624.72 530.9"/><polygon class="cls-3" points="327.12 530.9 178.12 281.89 29.51 530.9 327.12 530.9"/><polygon class="cls-4" points="475.72 281.89 326.72 32.87 178.12 281.89 475.72 281.89"/><path class="cls-1" d="M675.54,258.72a100.73,100.73,0,0,1-28-3.65q-12.63-3.66-21-9.74a60.32,60.32,0,0,1-14-14.22,56.73,56.73,0,0,1-8.24-16.94A65.53,65.53,0,0,1,601.8,196a60.21,60.21,0,0,1,11-35.28A72.29,72.29,0,0,1,642,136.4a91,91,0,0,1,39.12-8.51,115.42,115.42,0,0,1,42.11,8.23L725,173.56h-5.43l-18.34-30.14q-11-8-22.64-8-18,0-28.83,15.16T638.86,190q0,29.19,12.07,44.73t30,15.53a36.23,36.23,0,0,0,15.35-3.18V207.62l-21-3v-8h62.52v7.48l-10.49,2.62v41.56l-7.11,2.24Q692.94,258.72,675.54,258.72Z"/><path class="cls-1" d="M815,258l-2.25-15.16q-15.35,15.72-31.44,15.72-12,0-19.66-6.83T754,229.89V178.61L742.54,173v-4.11l41.74-7.3v62.14q0,17.4,15,17.4A22.14,22.14,0,0,0,812.36,237V177.86l-12-5.43v-4.11l42.3-7.3v82.72l12,3V252Z"/><path class="cls-1" d="M886.1,258.53q-10.86,0-17.87-6.74a22.6,22.6,0,0,1-7-17q0-11,7.67-17.31t25.27-10.39l17.78-4.31V188.16q-.57-8.24-4.4-13.39A12.46,12.46,0,0,0,897,169.63c-3.12,0-5.5.62-7.12,1.87l-.56,22.27A31.9,31.9,0,0,1,876.37,196q-5.8,0-9.17-2.81t-3.37-8.05q0-8.79,13.94-16.75t31.73-8q32.18,0,32.19,29.76v48.11q0,4.49,1.4,5.7c.94.82,2.78,1.22,5.52,1.22h6.74v4.68q-14.22,8.23-25.45,8.23-16.11,0-17-15.34h-.75Q901.26,258.53,886.1,258.53Zm16.1-16.1q5.24,0,9.73-4.49V209.31l-6.36,2.05q-16.11,5.05-16.1,17.22a14.38,14.38,0,0,0,3.46,10A11.9,11.9,0,0,0,902.2,242.43Z"/><path class="cls-1" d="M958,255.72v-6.36l11.42-2.81V181.79l-11.23-7.67v-3.37l37.62-10.67h1.12L998,185h.75l2.81-5.8q5.05-10.29,10-14.5a18.57,18.57,0,0,1,12.45-4.22,15.36,15.36,0,0,1,10.39,3.84q4.39,3.84,4.4,10.58,0,7.29-4.78,11.6t-13.94,4.87l-10.48-8.8A17.07,17.07,0,0,0,1004,187a20.68,20.68,0,0,0-4.3,7.49v52l16.66,2.81v6.36Z"/><path class="cls-1" d="M1092.17,129.39V126.2l45.1-10.48v128l10.86,2.81v5.24L1110.51,258l-2.62-12q-11.79,12.54-27.52,12.54-16.83,0-27.6-12.63T1042,213.61q0-22.65,16.65-37.15T1098.72,162q2.8,0,8.23.56V136.69Zm5.8,113.79a17,17,0,0,0,9-2.62V179.92q-6.36-11.23-16.09-11.23-7.86,0-13.29,8.05t-5.43,24.7q0,18,7.39,29.86T1098,243.18Z"/><path class="cls-1" d="M1156,255.72v-6.36l12-2.81V181.79l-11.6-8.42V170l42.11-9.55v86.1l12,2.81v6.36Zm27.32-108.55a14.62,14.62,0,0,1-10.85-4.59,15.57,15.57,0,0,1,0-21.9,14.64,14.64,0,0,1,10.85-4.58,15.3,15.3,0,0,1,11,4.58,15.28,15.28,0,0,1,.09,21.9A15.16,15.16,0,0,1,1183.31,147.17Z"/><path class="cls-1" d="M1242.27,258.53q-10.86,0-17.88-6.74a22.6,22.6,0,0,1-7-17q0-11,7.68-17.31t25.26-10.39l17.78-4.31V188.16q-.55-8.24-4.39-13.39a12.47,12.47,0,0,0-10.58-5.14q-4.68,0-7.11,1.87l-.56,22.27a32,32,0,0,1-12.92,2.25c-3.87,0-6.92-.94-9.17-2.81s-3.37-4.55-3.37-8.05q0-8.79,14-16.75t31.72-8q32.19,0,32.19,29.76v48.11q0,4.49,1.41,5.7c.93.82,2.77,1.22,5.52,1.22h6.74v4.68q-14.24,8.23-25.46,8.23-16.1,0-17-15.34h-.75Q1257.42,258.53,1242.27,258.53Zm16.09-16.1q5.23,0,9.73-4.49V209.31l-6.36,2.05q-16.1,5.05-16.09,17.22a14.38,14.38,0,0,0,3.46,10A11.88,11.88,0,0,0,1258.36,242.43Z"/><path class="cls-1" d="M1314.14,255.72v-6.36l11.41-2.81V181.79l-11.22-7.67v-3.37l37.05-10.67h.94l1.68,17.59h.57q16.65-17.21,33.31-17.22,12.91,0,19.93,7.21t7,21.81v57.08l11.61,3v6.17h-51.85v-6.36l9.92-2.81V195.83q-.18-8-4.21-12.92T1369,178.24a23.62,23.62,0,0,0-13.1,4.67v63.64l9.91,2.81v6.36Z"/><path class="cls-1" d="M1535.36,127.89q29,0,48.76,17.69t19.74,46.13q0,29.58-20.77,48.29t-48.48,18.72q-28.44,0-48.28-17.78t-19.84-47q0-28.26,20.68-47.17T1535.36,127.89ZM1538,251q14,0,22-14.13t8-39.4q0-25.26-9.92-43.61t-25.83-18.34q-14,0-22,13.95t-8,39.39q0,26.21,10.2,44.17T1538,251Z"/><path class="cls-1" d="M1613,255.72v-6.36l11.42-2.81V181.79l-11.23-7.67v-3.37l37.06-10.67h.93l1.69,17.59h.56q16.65-17.21,33.32-17.22,12.9,0,19.93,7.21t7,21.81v57.08l11.6,3v6.17h-51.84v-6.36l9.92-2.81V195.83q-.2-8-4.21-12.92t-11.33-4.67a23.62,23.62,0,0,0-13.1,4.67v63.64l9.92,2.81v6.36Z"/><path class="cls-1" d="M1774.55,258.15q-19.83,0-32.1-13.85t-12.25-34.25a48,48,0,0,1,14.59-35.18q14.61-14.61,32.76-14.6,34.25,0,38.93,40.42h-59.89q.36,17.42,10.48,27.14a33.36,33.36,0,0,0,24,9.74q10.49,0,23.77-8l3,3.55Q1799.27,258.17,1774.55,258.15Zm-3.18-90q-6,0-10,6.46t-4.77,19.18h29.76q-.94-11.61-4.78-18.62T1771.37,168.13Z"/><path class="cls-3" d="M702.19,380V335.35h13.72A20.89,20.89,0,0,1,726.43,338a18.49,18.49,0,0,1,7.25,7.54,23.31,23.31,0,0,1,2.6,11.1v2.06a23.28,23.28,0,0,1-2.56,11.06,18.35,18.35,0,0,1-7.21,7.5A21,21,0,0,1,716,380Zm9.19-37.16v29.77h4.44q5.38,0,8.24-3.52T727,359v-2.36q0-6.8-2.82-10.3c-1.88-2.34-4.62-3.51-8.24-3.51Z"/><path class="cls-3" d="M765.48,380.57a16.27,16.27,0,0,1-11.87-4.47Q749,371.62,749,364.18v-.86a20,20,0,0,1,1.93-8.93,14.11,14.11,0,0,1,5.46-6.06,15.36,15.36,0,0,1,8.08-2.13q6.79,0,10.7,4.29t3.91,12.16v3.61H758a8.24,8.24,0,0,0,2.59,5.21,7.81,7.81,0,0,0,5.47,2,9.53,9.53,0,0,0,8-3.71l4.35,4.88A13.26,13.26,0,0,1,773,379,17.69,17.69,0,0,1,765.48,380.57Zm-1-27.23a5.53,5.53,0,0,0-4.27,1.78,9.28,9.28,0,0,0-2.1,5.11h12.32v-.71a6.55,6.55,0,0,0-1.6-4.57A5.69,5.69,0,0,0,764.46,353.34Z"/><path class="cls-3" d="M802.57,338.66v8.15h5.67v6.49h-5.67v16.55a3.94,3.94,0,0,0,.71,2.63,3.54,3.54,0,0,0,2.69.8,13.6,13.6,0,0,0,2.61-.22v6.71a18.27,18.27,0,0,1-5.36.8q-9.32,0-9.5-9.4V353.3h-4.84v-6.49h4.84v-8.15Z"/><path class="cls-3" d="M836.27,380.57a16.27,16.27,0,0,1-11.87-4.47q-4.57-4.49-4.58-11.92v-.86a20.13,20.13,0,0,1,1.93-8.93,14.2,14.2,0,0,1,5.47-6.06,15.34,15.34,0,0,1,8.07-2.13c4.54,0,8.1,1.43,10.71,4.29s3.9,6.91,3.9,12.16v3.61H828.8a8.2,8.2,0,0,0,2.59,5.21,7.8,7.8,0,0,0,5.46,2,9.54,9.54,0,0,0,8-3.71l4.35,4.88a13.33,13.33,0,0,1-5.39,4.39A17.74,17.74,0,0,1,836.27,380.57Zm-1-27.23a5.51,5.51,0,0,0-4.27,1.78,9.21,9.21,0,0,0-2.1,5.11H841.2v-.71a6.6,6.6,0,0,0-1.59-4.57A5.69,5.69,0,0,0,835.26,353.34Z"/><path class="cls-3" d="M876.56,373.43a5.8,5.8,0,0,0,4-1.35,4.7,4.7,0,0,0,1.59-3.58h8.3a11.3,11.3,0,0,1-1.84,6.17,12.08,12.08,0,0,1-4.94,4.35,15.54,15.54,0,0,1-6.94,1.55q-7.11,0-11.21-4.52t-4.11-12.48V363q0-7.67,4.08-12.23t11.18-4.56q6.21,0,10,3.54a12.52,12.52,0,0,1,3.81,9.42h-8.3a6.09,6.09,0,0,0-1.59-4.21,5.94,5.94,0,0,0-8.72.64q-1.58,2.25-1.57,7.32v.92q0,5.13,1.56,7.36A5.38,5.38,0,0,0,876.56,373.43Z"/><path class="cls-3" d="M913.93,338.66v8.15h5.67v6.49h-5.67v16.55a3.94,3.94,0,0,0,.7,2.63,3.55,3.55,0,0,0,2.7.8,13.42,13.42,0,0,0,2.6-.22v6.71a18.22,18.22,0,0,1-5.36.8q-9.32,0-9.49-9.4V353.3h-4.84v-6.49h4.84v-8.15Z"/><path class="cls-1" d="M963.1,388.23h-5.36V335.35h5.36Z"/><path class="cls-4" d="M1013.37,380h-9.19V335.35h9.19Z"/><path class="cls-4" d="M1027.77,363.14q0-7.75,3.47-12.35a11.29,11.29,0,0,1,9.52-4.59,10.14,10.14,0,0,1,8,3.61V332.9h8.88V380h-8l-.43-3.53a10.42,10.42,0,0,1-8.52,4.14,11.26,11.26,0,0,1-9.39-4.61Q1027.76,371.36,1027.77,363.14Zm8.85.66q0,4.67,1.62,7.15a5.3,5.3,0,0,0,4.72,2.48,5.91,5.91,0,0,0,5.79-3.47v-13.1a5.83,5.83,0,0,0-5.73-3.46Q1036.62,353.4,1036.62,363.8Z"/><path class="cls-4" d="M1087.59,380.57a16.29,16.29,0,0,1-11.87-4.47q-4.58-4.49-4.58-11.92v-.86a20.13,20.13,0,0,1,1.93-8.93,14.2,14.2,0,0,1,5.47-6.06,15.34,15.34,0,0,1,8.07-2.13q6.81,0,10.71,4.29t3.91,12.16v3.61h-21.11a8.2,8.2,0,0,0,2.59,5.21,7.81,7.81,0,0,0,5.47,2,9.53,9.53,0,0,0,8-3.71l4.35,4.88a13.33,13.33,0,0,1-5.39,4.39A17.74,17.74,0,0,1,1087.59,380.57Zm-1-27.23a5.53,5.53,0,0,0-4.27,1.78,9.28,9.28,0,0,0-2.1,5.11h12.32v-.71a6.6,6.6,0,0,0-1.6-4.57A5.69,5.69,0,0,0,1086.58,353.34Z"/><path class="cls-4" d="M1122.24,346.81l.28,3.83a11.57,11.57,0,0,1,9.52-4.44c3.52,0,6.13,1,7.85,3.09s2.59,5.15,2.63,9.25V380h-8.85v-21.2a5.73,5.73,0,0,0-1.23-4.09c-.81-.85-2.17-1.27-4.07-1.27a6.1,6.1,0,0,0-5.61,3.18V380h-8.85V346.81Z"/><path class="cls-4" d="M1167.67,338.66v8.15h5.67v6.49h-5.67v16.55a3.94,3.94,0,0,0,.71,2.63,3.52,3.52,0,0,0,2.69.8,13.6,13.6,0,0,0,2.61-.22v6.71a18.32,18.32,0,0,1-5.36.8q-9.32,0-9.5-9.4V353.3H1154v-6.49h4.84v-8.15Z"/><path class="cls-4" d="M1186.05,338.23a4.37,4.37,0,0,1,1.33-3.27,5.74,5.74,0,0,1,7.25,0,4.66,4.66,0,0,1,0,6.58,5.65,5.65,0,0,1-7.19,0A4.35,4.35,0,0,1,1186.05,338.23Zm9.41,41.73h-8.89V346.81h8.89Z"/><path class="cls-4" d="M1213,380V353.3h-4.93v-6.49H1213V344c0-3.71,1.07-6.6,3.2-8.65s5.12-3.08,9-3.08a20.46,20.46,0,0,1,4.5.61l-.09,6.86a11.44,11.44,0,0,0-2.69-.27q-5,0-5,4.69v2.66h6.59v6.49h-6.59V380Z"/><path class="cls-4" d="M1253.29,367.43l6.13-20.62h9.5l-13.33,38.29-.73,1.75c-2,4.33-5.25,6.49-9.81,6.49a13.9,13.9,0,0,1-3.92-.58v-6.71l1.35,0a7.28,7.28,0,0,0,3.75-.76,5,5,0,0,0,2-2.55l1-2.72-11.61-33.24h9.53Z"/><path class="cls-1" d="M1311,388.23h-5.36V335.35H1311Z"/><path class="cls-2" d="M1386.49,365.1a15.79,15.79,0,0,1-5.31,11.33q-4.8,4.14-12.64,4.14-8.58,0-13.5-5.78t-4.91-15.85v-2.72a26.79,26.79,0,0,1,2.26-11.34,17.1,17.1,0,0,1,6.48-7.52,18.12,18.12,0,0,1,9.79-2.62q7.72,0,12.44,4.14t5.45,11.61h-9.19q-.33-4.32-2.4-6.27t-6.3-1.94a7.81,7.81,0,0,0-6.88,3.29q-2.28,3.3-2.34,10.22v3.37q0,7.23,2.19,10.56t6.91,3.34c2.84,0,5-.64,6.36-1.94s2.2-3.3,2.4-6Z"/><path class="cls-2" d="M1398.41,363.08a19.58,19.58,0,0,1,1.9-8.79,13.89,13.89,0,0,1,5.46-6,16,16,0,0,1,8.29-2.11,15.12,15.12,0,0,1,11,4.1q4.24,4.11,4.74,11.15l.06,2.27q0,7.63-4.26,12.24t-11.43,4.61q-7.17,0-11.44-4.6t-4.27-12.49Zm8.85.63c0,3.15.59,5.55,1.78,7.22a6.38,6.38,0,0,0,10.11,0q1.8-2.47,1.8-7.9,0-4.63-1.8-7.18a5.87,5.87,0,0,0-5.09-2.54,5.77,5.77,0,0,0-5,2.53C1407.85,357.55,1407.26,360.17,1407.26,363.71Z"/><path class="cls-2" d="M1451.4,346.81l.28,3.71a11.65,11.65,0,0,1,9.53-4.32q6.4,0,8.79,5.05a11.38,11.38,0,0,1,10-5.05c3.59,0,6.27,1,8,3.14s2.64,5.24,2.64,9.45V380h-8.89V358.82a6.34,6.34,0,0,0-1.1-4.12c-.74-.87-2-1.3-3.89-1.3a5.51,5.51,0,0,0-5.51,3.8l0,22.76h-8.86V358.85a6.28,6.28,0,0,0-1.13-4.17,5,5,0,0,0-3.86-1.28,5.73,5.73,0,0,0-5.45,3.12V380h-8.86V346.81Z"/><path class="cls-2" d="M1513.56,346.81l.28,3.71a11.64,11.64,0,0,1,9.52-4.32q6.41,0,8.8,5.05a11.36,11.36,0,0,1,9.95-5.05c3.6,0,6.27,1,8,3.14s2.63,5.24,2.63,9.45V380h-8.88V358.82a6.34,6.34,0,0,0-1.1-4.12c-.74-.87-2-1.3-3.89-1.3a5.52,5.52,0,0,0-5.52,3.8l0,22.76h-8.85V358.85a6.28,6.28,0,0,0-1.13-4.17,5,5,0,0,0-3.86-1.28,5.75,5.75,0,0,0-5.46,3.12V380h-8.85V346.81Z"/><path class="cls-2" d="M1587.27,376.59a11.13,11.13,0,0,1-9.07,4c-3.55,0-6.27-1-8.13-3.06s-2.83-5-2.87-9V346.81h8.85v21.44c0,3.45,1.58,5.18,4.72,5.18s5.07-1,6.19-3.13V346.81h8.88V380h-8.33Z"/><path class="cls-2" d="M1618.51,346.81l.28,3.83a11.57,11.57,0,0,1,9.53-4.44q5.27,0,7.84,3.09c1.71,2.06,2.59,5.15,2.63,9.25V380h-8.85v-21.2a5.73,5.73,0,0,0-1.23-4.09c-.81-.85-2.17-1.27-4.07-1.27a6.1,6.1,0,0,0-5.61,3.18V380h-8.85V346.81Z"/><path class="cls-2" d="M1653.28,338.23a4.34,4.34,0,0,1,1.34-3.27,5.72,5.72,0,0,1,7.24,0,4.31,4.31,0,0,1,1.35,3.27,4.38,4.38,0,0,1-1.36,3.31,5.67,5.67,0,0,1-7.2,0A4.35,4.35,0,0,1,1653.28,338.23Zm9.41,41.73h-8.89V346.81h8.89Z"/><path class="cls-2" d="M1691.61,373.43a5.8,5.8,0,0,0,4-1.35,4.7,4.7,0,0,0,1.59-3.58h8.3a11.37,11.37,0,0,1-1.83,6.17,12.17,12.17,0,0,1-5,4.35,15.51,15.51,0,0,1-6.94,1.55q-7.11,0-11.21-4.52t-4.11-12.48V363q0-7.67,4.08-12.23t11.18-4.56q6.21,0,10,3.54a12.52,12.52,0,0,1,3.81,9.42h-8.3a6.09,6.09,0,0,0-1.59-4.21,5.3,5.3,0,0,0-4-1.61,5.35,5.35,0,0,0-4.68,2.25q-1.57,2.25-1.57,7.32v.92q0,5.13,1.56,7.36A5.38,5.38,0,0,0,1691.61,373.43Z"/><path class="cls-2" d="M1737.59,380a9.74,9.74,0,0,1-.89-3,10.73,10.73,0,0,1-8.36,3.58,11.75,11.75,0,0,1-8.07-2.82,9.06,9.06,0,0,1-3.21-7.11,9.37,9.37,0,0,1,3.91-8.08q3.9-2.82,11.29-2.85h4.07v-1.9a5.46,5.46,0,0,0-1.18-3.68,4.62,4.62,0,0,0-3.72-1.38,5.26,5.26,0,0,0-3.51,1.08,3.65,3.65,0,0,0-1.27,2.94h-8.85a8.85,8.85,0,0,1,1.78-5.33,11.64,11.64,0,0,1,5-3.85,18.26,18.26,0,0,1,7.29-1.39q6.13,0,9.73,3.08t3.6,8.65V372.3a16,16,0,0,0,1.31,7.14V380Zm-7.32-6.16a7.64,7.64,0,0,0,3.61-.87,5.8,5.8,0,0,0,2.45-2.35v-5.69H1733q-6.64,0-7.07,4.59l0,.52a3.55,3.55,0,0,0,1.16,2.73A4.56,4.56,0,0,0,1730.27,373.8Z"/><path class="cls-2" d="M1770.46,338.66v8.15h5.67v6.49h-5.67v16.55a3.94,3.94,0,0,0,.7,2.63,3.55,3.55,0,0,0,2.7.8,13.42,13.42,0,0,0,2.6-.22v6.71a18.22,18.22,0,0,1-5.36.8q-9.31,0-9.49-9.4V353.3h-4.84v-6.49h4.84v-8.15Z"/><path class="cls-2" d="M1804.16,380.57a16.27,16.27,0,0,1-11.87-4.47q-4.59-4.49-4.58-11.92v-.86a20,20,0,0,1,1.93-8.93,14.17,14.17,0,0,1,5.46-6.06,15.36,15.36,0,0,1,8.08-2.13q6.79,0,10.7,4.29t3.91,12.16v3.61h-21.11a8.24,8.24,0,0,0,2.59,5.21,7.81,7.81,0,0,0,5.47,2,9.53,9.53,0,0,0,8-3.71l4.35,4.88a13.26,13.26,0,0,1-5.39,4.39A17.69,17.69,0,0,1,1804.16,380.57Zm-1-27.23a5.53,5.53,0,0,0-4.28,1.78,9.28,9.28,0,0,0-2.1,5.11h12.32v-.71a6.6,6.6,0,0,0-1.59-4.57A5.72,5.72,0,0,0,1803.15,353.34Z"/></g></g></svg>