<?xml version="1.0" encoding="utf-8"?>
<!-- Generator: Adobe Illustrator 24.3.0, SVG Export Plug-In . SVG Version: 6.00 Build 0)  -->
<svg version="1.1" xmlns="http://www.w3.org/2000/svg" xmlns:xlink="http://www.w3.org/1999/xlink" x="0px" y="0px"
	 viewBox="0 0 630.9 157.2" style="enable-background:new 0 0 630.9 157.2;" xml:space="preserve">
<style type="text/css">
	.st0{fill:#D9BD48;}
	.st1{fill:#383838;}
	.st2{fill:#FFFFFF;}
	.st3{fill:#AF8249;}
	.st4{fill:#D6A348;}
</style>
<g id="Layer_1">
	<g id="ug1323.tif">
		
			<image style="overflow:visible;" width="366" height="116" id="Layer_0_1_" xlink:href="F887C37D18DF7C76.png"  transform="matrix(4.9186 0 0 4.9186 2024.5703 -493.2184)">
		</image>
	</g>
</g>
<g id="Layer_3">
	<polygon class="st0" points="-2673.6,3295.4 -2953.6,2827.4 -2953.6,2827.4 -2953.6,2827.4 -3233.7,2359.4 -3513,2827.4 
		-3513,2827.4 -3513,2827.4 -3792.3,3295.4 -3232.9,3295.4 -3232.9,3295.4 -3232.9,3295.4 	"/>
</g>
<g id="Layer_4">
	<g>
		<path class="st1" d="M-1574.2,652.9l-38.9-23.2l8.8-14.8c1.9-3.3,4.2-5.9,6.7-8c2.5-2,5.2-3.4,8-4.1c2.8-0.7,5.7-0.8,8.6-0.3
			c2.9,0.5,5.8,1.6,8.6,3.3c4,2.4,7,5.3,8.9,8.7c2,3.4,2.8,7.2,2.4,11.2c-0.4,4-1.8,8.1-4.2,12.2L-1574.2,652.9z M-1576.9,639.7
			l3.4-5.6c2.4-4,3.3-7.7,2.8-10.9c-0.5-3.2-2.8-6.1-6.9-8.5c-4.1-2.5-7.8-3.2-10.9-2.1c-3.1,1.1-5.9,3.6-8.3,7.7l-3.3,5.6
			L-1576.9,639.7z"/>
		<path class="st1" d="M-1549.6,611.7l-38.9-23.2l15.8-26.6l7.8,4.7l-10.7,18l7.3,4.4l10-16.8l7.7,4.6l-10,16.8l8.3,5l10.9-18.4
			l7.8,4.7L-1549.6,611.7z"/>
		<path class="st1" d="M-1525.3,570.9l-31.1-18.5l-6.3,10.6l-7.8-4.7l17.6-29.6l7.8,4.7l-6.2,10.4l31.1,18.5L-1525.3,570.9z"/>
		<path class="st1" d="M-1511.3,547.3l-38.9-23.2l15.8-26.6l7.8,4.7l-10.7,18l7.3,4.4l10-16.8l7.7,4.6l-10,16.8l8.3,5l10.9-18.4
			l7.8,4.7L-1511.3,547.3z"/>
		<path class="st1" d="M-1512,504.3c-2.8-1.7-5.1-3.8-7-6.3c-1.9-2.6-3.1-5.4-3.8-8.4c-0.7-3-0.7-6.1-0.2-9.2c0.5-3.2,1.6-6.1,3.3-9
			c0.9-1.5,2.1-3,3.6-4.6c1.6-1.6,3.5-3.1,5.8-4.3c2.3-1.2,4.7-2,7.2-2.5l1.5,8.8c-2.1,0.4-4.1,1.2-5.9,2.5
			c-1.8,1.3-3.3,2.9-4.4,4.7c-1,1.7-1.6,3.5-1.9,5.4c-0.3,1.9-0.2,3.7,0.2,5.5c0.5,1.8,1.2,3.4,2.4,5c1.1,1.5,2.6,2.8,4.3,3.8
			c1.7,1,3.5,1.7,5.4,1.9c1.9,0.3,3.7,0.2,5.5-0.3s3.4-1.3,4.9-2.4c1.5-1.2,2.8-2.6,3.8-4.3c1.1-1.9,1.8-4,2.1-6.2
			c0.2-2.2,0-4.4-0.6-6.4l8.5-2.9c1.2,3.3,1.6,6.7,1.2,10.3c-0.4,3.5-1.5,6.8-3.3,9.9c-1.7,2.8-3.8,5.2-6.3,7.2
			c-2.5,2-5.2,3.4-8.2,4.2c-3,0.9-6,1.1-9.1,0.7C-1506.3,507-1509.2,505.9-1512,504.3z"/>
		<path class="st1" d="M-1463.3,466.5l-31.1-18.5l-6.3,10.6l-7.8-4.7l17.6-29.6l7.8,4.7l-6.2,10.4l31.1,18.5L-1463.3,466.5z"/>
	</g>
	<g>
		<polygon class="st2" points="463.2,-1300.9 301.1,-1029.4 625.7,-1029.4 		"/>
		<g>
			<polygon class="st3" points="600.4,-1044.3 531.8,-1158.9 463.4,-1044.3 			"/>
			<polygon class="st4" points="463.4,-1044.3 394.8,-1158.9 326.4,-1044.3 			"/>
			<polygon class="st0" points="531.8,-1158.9 463.2,-1273.6 394.8,-1158.9 			"/>
		</g>
	</g>
	<g>
		<polygon class="st2" points="91,19.7 21.2,136.7 161.1,136.7 		"/>
		<g>
			<polygon class="st3" points="150.2,130.3 120.6,80.9 91.1,130.3 			"/>
			<polygon class="st4" points="91.1,130.3 61.5,80.9 32,130.3 			"/>
			<polygon class="st0" points="120.6,80.9 91,31.5 61.5,80.9 			"/>
		</g>
	</g>
	<g>
		<path class="st2" d="M191.1,85.9c-3.6,0-6.9-0.4-9.9-1.3c-3-0.9-5.4-2-7.4-3.4c-2-1.4-3.6-3.1-4.9-5c-1.3-1.9-2.3-3.9-2.9-6
			c-0.6-2.1-0.9-4.2-0.9-6.4c0-4.6,1.3-8.7,3.9-12.4c2.6-3.7,6-6.6,10.3-8.6c4.3-2,8.9-3,13.8-3c4.9,0,9.9,1,14.8,2.9l0.6,13.2h-1.9
			l-6.5-10.6c-2.6-1.9-5.2-2.8-8-2.8c-4.2,0-7.6,1.8-10.1,5.3c-2.5,3.6-3.8,8.2-3.8,13.9c0,6.9,1.4,12.1,4.3,15.7
			c2.8,3.6,6.4,5.5,10.6,5.5c2,0,3.8-0.4,5.4-1.1V67.9l-7.4-1.1V64h22v2.6l-3.7,0.9v14.6l-2.5,0.8C200.4,84.9,195.2,85.9,191.1,85.9
			z"/>
		<path class="st2" d="M240.2,85.6l-0.8-5.3c-3.6,3.7-7.3,5.5-11.1,5.5c-2.8,0-5.1-0.8-6.9-2.4c-1.8-1.6-2.7-4.2-2.7-7.7V57.7l-4-2
			v-1.4l14.7-2.6v21.9c0,4.1,1.8,6.1,5.3,6.1c1.7,0,3.3-0.5,4.6-1.4V57.4l-4.2-1.9v-1.4l14.9-2.6v29.1l4.2,1.1v1.8L240.2,85.6z"/>
		<path class="st2" d="M265.2,85.8c-2.5,0-4.6-0.8-6.3-2.4c-1.6-1.6-2.5-3.6-2.5-6c0-2.6,0.9-4.6,2.7-6.1c1.8-1.5,4.8-2.7,8.9-3.7
			l6.3-1.5V61c-0.1-1.9-0.6-3.5-1.5-4.7c-0.9-1.2-2.1-1.8-3.7-1.8c-1.1,0-1.9,0.2-2.5,0.7l-0.2,7.8c-1.2,0.5-2.7,0.8-4.5,0.8
			c-1.4,0-2.4-0.3-3.2-1c-0.8-0.7-1.2-1.6-1.2-2.8c0-2.1,1.6-4,4.9-5.9c3.3-1.9,7-2.8,11.2-2.8c7.6,0,11.3,3.5,11.3,10.5v16.9
			c0,1.1,0.2,1.7,0.5,2c0.3,0.3,1,0.4,1.9,0.4h2.4v1.6c-3.3,1.9-6.3,2.9-9,2.9c-3.8,0-5.8-1.8-6-5.4h-0.3
			C271.8,84,268.8,85.8,265.2,85.8z M270.9,80.1c1.2,0,2.4-0.5,3.4-1.6V68.5l-2.2,0.7c-3.8,1.2-5.7,3.2-5.7,6.1
			c0,1.4,0.4,2.6,1.2,3.5C268.5,79.7,269.5,80.1,270.9,80.1z"/>
		<path class="st2" d="M290.5,84.8v-2.2l4-1V58.8l-4-2.7v-1.2l13.2-3.8h0.4l0.4,8.8h0.3l1-2c1.2-2.4,2.4-4.1,3.5-5.1
			c1.2-1,2.6-1.5,4.4-1.5c1.4,0,2.6,0.5,3.7,1.4c1,0.9,1.5,2.1,1.5,3.7c0,1.7-0.6,3.1-1.7,4.1c-1.1,1-2.8,1.6-4.9,1.7l-3.7-3.1
			c-0.6,0.3-1.3,0.8-2,1.6c-0.7,0.8-1.2,1.7-1.5,2.6v18.3l5.9,1v2.2H290.5z"/>
		<path class="st2" d="M337.8,40.3v-1.1l15.9-3.7v45.1l3.8,1v1.8l-13.2,2.2l-0.9-4.2c-2.8,2.9-6,4.4-9.7,4.4c-4,0-7.2-1.5-9.7-4.4
			c-2.5-3-3.8-6.8-3.8-11.4c0-5.3,2-9.7,5.9-13.1c3.9-3.4,8.6-5.1,14.1-5.1c0.7,0,1.6,0.1,2.9,0.2v-9.1L337.8,40.3z M339.8,80.4
			c1.1,0,2.2-0.3,3.2-0.9V58.1c-1.5-2.6-3.4-4-5.7-4c-1.8,0-3.4,0.9-4.7,2.8c-1.3,1.9-1.9,4.8-1.9,8.7c0,4.2,0.9,7.7,2.6,10.5
			C335.1,79,337.2,80.4,339.8,80.4z"/>
		<path class="st2" d="M360.3,84.8v-2.2l4.2-1V58.8l-4.1-3v-1.2l14.8-3.4v30.3l4.2,1v2.2H360.3z M369.9,46.6c-1.5,0-2.8-0.5-3.8-1.6
			c-1.1-1.1-1.6-2.4-1.6-3.9c0-1.5,0.5-2.8,1.6-3.9c1.1-1.1,2.3-1.6,3.8-1.6c1.5,0,2.8,0.5,3.9,1.6c1.1,1.1,1.6,2.4,1.6,3.9
			c0,1.5-0.5,2.8-1.6,3.9C372.7,46.1,371.4,46.6,369.9,46.6z"/>
		<path class="st2" d="M390.6,85.8c-2.5,0-4.6-0.8-6.3-2.4c-1.6-1.6-2.5-3.6-2.5-6c0-2.6,0.9-4.6,2.7-6.1c1.8-1.5,4.8-2.7,8.9-3.7
			l6.3-1.5V61c-0.1-1.9-0.6-3.5-1.5-4.7c-0.9-1.2-2.1-1.8-3.7-1.8c-1.1,0-1.9,0.2-2.5,0.7l-0.2,7.8c-1.2,0.5-2.7,0.8-4.5,0.8
			c-1.4,0-2.4-0.3-3.2-1c-0.8-0.7-1.2-1.6-1.2-2.8c0-2.1,1.6-4,4.9-5.9c3.3-1.9,7-2.8,11.2-2.8c7.6,0,11.3,3.5,11.3,10.5v16.9
			c0,1.1,0.2,1.7,0.5,2c0.3,0.3,1,0.4,1.9,0.4h2.4v1.6c-3.3,1.9-6.3,2.9-9,2.9c-3.8,0-5.8-1.8-6-5.4h-0.3
			C397.2,84,394.2,85.8,390.6,85.8z M396.3,80.1c1.2,0,2.4-0.5,3.4-1.6V68.5l-2.2,0.7c-3.8,1.2-5.7,3.2-5.7,6.1
			c0,1.4,0.4,2.6,1.2,3.5C393.8,79.7,394.9,80.1,396.3,80.1z"/>
		<path class="st2" d="M415.9,84.8v-2.2l4-1V58.8l-4-2.7v-1.2l13-3.8h0.3l0.6,6.2h0.2c3.9-4,7.8-6.1,11.7-6.1c3,0,5.4,0.8,7,2.5
			c1.6,1.7,2.5,4.3,2.5,7.7v20.1l4.1,1.1v2.2h-18.3v-2.2l3.5-1V63.7c0-1.9-0.5-3.4-1.5-4.5c-0.9-1.1-2.3-1.7-4-1.6
			c-1.6,0-3.1,0.6-4.6,1.6v22.4l3.5,1v2.2H415.9z"/>
		<path class="st2" d="M493.8,39.8c6.8,0,12.5,2.1,17.2,6.2c4.6,4.2,7,9.6,7,16.2c0,6.9-2.4,12.6-7.3,17c-4.9,4.4-10.6,6.6-17.1,6.6
			c-6.7,0-12.3-2.1-17-6.3c-4.7-4.2-7-9.7-7-16.5c0-6.6,2.4-12.2,7.3-16.6C481.7,42,487.4,39.8,493.8,39.8z M494.7,83.2
			c3.3,0,5.9-1.7,7.7-5c1.9-3.3,2.8-7.9,2.8-13.9s-1.2-11-3.5-15.4c-2.3-4.3-5.4-6.5-9.1-6.5c-3.3,0-5.9,1.6-7.7,4.9
			c-1.9,3.3-2.8,7.9-2.8,13.9c0,6.2,1.2,11.3,3.6,15.6C488.1,81.1,491.1,83.2,494.7,83.2z"/>
		<path class="st2" d="M521.2,84.8v-2.2l4-1V58.8l-4-2.7v-1.2l13-3.8h0.3l0.6,6.2h0.2c3.9-4,7.8-6.1,11.7-6.1c3,0,5.4,0.8,7,2.5
			c1.6,1.7,2.5,4.3,2.5,7.7v20.1l4.1,1.1v2.2h-18.3v-2.2l3.5-1V63.7c0-1.9-0.5-3.4-1.5-4.5c-0.9-1.1-2.3-1.7-4-1.6
			c-1.6,0-3.1,0.6-4.6,1.6v22.4l3.5,1v2.2H521.2z"/>
		<path class="st2" d="M578,85.7c-4.7,0-8.4-1.6-11.3-4.9c-2.9-3.3-4.3-7.3-4.3-12.1c0-4.8,1.7-9,5.1-12.4c3.4-3.4,7.3-5.1,11.5-5.1
			c8,0,12.6,4.7,13.7,14.2h-21.1c0.1,4.1,1.3,7.3,3.7,9.6c2.4,2.3,5.2,3.4,8.4,3.4c2.5,0,5.2-0.9,8.4-2.8l1.1,1.3
			C588.9,82.7,583.8,85.7,578,85.7z M576.9,54c-1.4,0-2.6,0.8-3.5,2.3c-0.9,1.5-1.5,3.8-1.7,6.8h10.5c-0.2-2.7-0.8-4.9-1.7-6.6
			C579.6,54.8,578.4,54,576.9,54z"/>
	</g>
	<g>
		<path class="st4" d="M190.8,114.1V97.8h5.8c2.3,0,4.2,0.7,5.7,2.2c1.5,1.5,2.2,3.4,2.2,6c0,2.5-0.7,4.5-2.2,5.9
			c-1.5,1.4-3.4,2.2-5.7,2.2H190.8z M196.4,111.6c1.5,0,2.7-0.5,3.7-1.4c1-1,1.5-2.3,1.5-4.1c0-1.8-0.5-3.2-1.4-4.2
			s-2.2-1.5-3.7-1.5h-2.9v11.2H196.4z"/>
		<path class="st4" d="M207.3,114.1V97.8h10v2.6h-7.3v4.3h6.6v2.5h-6.6v4.3h7.3v2.6H207.3z"/>
		<path class="st4" d="M227.2,100.4v13.7h-2.8v-13.7h-5.3v-2.6h13.3v2.6H227.2z"/>
		<path class="st4" d="M234.7,114.1V97.8h10v2.6h-7.3v4.3h6.6v2.5h-6.6v4.3h7.3v2.6H234.7z"/>
		<path class="st4" d="M249.4,112.1c-1.6-1.5-2.4-3.6-2.4-6.1c0-2.5,0.8-4.6,2.4-6.1c1.6-1.6,3.5-2.3,5.8-2.3c2,0,3.6,0.5,4.8,1.5
			c1.3,1,2.1,2.3,2.5,3.8l-2.6,0.9c-0.3-1.1-0.8-1.9-1.6-2.6c-0.8-0.7-1.8-1-3.1-1c-1.5,0-2.7,0.5-3.8,1.5c-1.1,1-1.6,2.5-1.6,4.3
			c0,1.8,0.5,3.2,1.6,4.3c1.1,1,2.3,1.5,3.8,1.5c1.3,0,2.3-0.3,3.1-1c0.8-0.7,1.4-1.5,1.7-2.5l2.5,0.8c-0.4,1.5-1.2,2.8-2.5,3.8
			c-1.3,1-2.9,1.6-4.9,1.6C253,114.5,251,113.7,249.4,112.1z"/>
		<path class="st4" d="M271.6,100.4v13.7h-2.8v-13.7h-5.3v-2.6h13.3v2.6H271.6z"/>
		<path class="st2" d="M284.9,117.6V95.8h2.2v21.8H284.9z"/>
		<path class="st0" d="M296.7,114.1V97.8h2.8v16.3H296.7z"/>
		<path class="st0" d="M303.4,114.1V97.8h5.8c2.3,0,4.2,0.7,5.7,2.2c1.5,1.5,2.2,3.4,2.2,6c0,2.5-0.7,4.5-2.2,5.9
			c-1.5,1.4-3.4,2.2-5.7,2.2H303.4z M309,111.6c1.5,0,2.7-0.5,3.7-1.4c1-1,1.5-2.3,1.5-4.1c0-1.8-0.5-3.2-1.4-4.2
			c-1-1-2.2-1.5-3.7-1.5h-2.9v11.2H309z"/>
		<path class="st0" d="M320,114.1V97.8h10v2.6h-7.3v4.3h6.6v2.5h-6.6v4.3h7.3v2.6H320z"/>
		<path class="st0" d="M344.1,114.1l-8-12.3v12.3h-2.8V97.8h3.5l7.4,11.5V97.8h2.8v16.3H344.1z"/>
		<path class="st0" d="M357.2,100.4v13.7h-2.8v-13.7h-5.3v-2.6h13.3v2.6H357.2z"/>
		<path class="st0" d="M364.8,114.1V97.8h2.8v16.3H364.8z"/>
		<path class="st0" d="M371.5,114.1V97.8h10.1v2.6h-7.4v4.6h6.6v2.5h-6.6v6.6H371.5z"/>
		<path class="st0" d="M382.6,97.8h3.3l3.9,6.8l3.9-6.8h3.1l-5.7,9.4v6.9h-2.8v-6.9L382.6,97.8z"/>
		<path class="st2" d="M404.7,117.6V95.8h2.2v21.8H404.7z"/>
		<path class="st3" d="M417.9,112.1c-1.6-1.5-2.4-3.6-2.4-6.1c0-2.5,0.8-4.6,2.4-6.1c1.6-1.6,3.5-2.3,5.8-2.3c2,0,3.6,0.5,4.8,1.5
			s2.1,2.3,2.5,3.8l-2.6,0.9c-0.3-1.1-0.8-1.9-1.6-2.6c-0.8-0.7-1.8-1-3.1-1c-1.5,0-2.7,0.5-3.8,1.5c-1.1,1-1.6,2.5-1.6,4.3
			c0,1.8,0.5,3.2,1.6,4.3c1.1,1,2.3,1.5,3.8,1.5c1.3,0,2.3-0.3,3.1-1c0.8-0.7,1.4-1.5,1.7-2.5l2.5,0.8c-0.4,1.5-1.2,2.8-2.5,3.8
			c-1.3,1-2.9,1.6-4.9,1.6C421.5,114.5,419.5,113.7,417.9,112.1z"/>
		<path class="st3" d="M433.9,101.4c0.8-1.3,1.8-2.3,3-2.9c1.2-0.7,2.6-1,4-1c1.5,0,2.8,0.3,4,1c1.2,0.7,2.3,1.6,3.1,2.9
			c0.8,1.3,1.2,2.8,1.2,4.5c0,1.7-0.4,3.2-1.2,4.5c-0.8,1.3-1.8,2.3-3.1,3c-1.2,0.7-2.6,1-4,1c-1.5,0-2.8-0.3-4-1
			c-1.2-0.7-2.3-1.6-3-3c-0.8-1.3-1.2-2.8-1.2-4.5C432.7,104.3,433.1,102.7,433.9,101.4z M437.2,110.3c1.1,1,2.3,1.5,3.8,1.5
			c1.5,0,2.8-0.5,3.8-1.5c1.1-1,1.6-2.5,1.6-4.3s-0.5-3.3-1.6-4.3c-1.1-1-2.4-1.5-3.8-1.5c-1.5,0-2.8,0.5-3.8,1.5
			c-1.1,1-1.6,2.5-1.6,4.3S436.1,109.3,437.2,110.3z"/>
		<path class="st3" d="M467.3,114.1v-12l-5.1,12h-2.4l-5-11.9v11.9h-2.7V97.8h3.7l5.3,12.4l5.2-12.4h3.7v16.3H467.3z"/>
		<path class="st3" d="M489.1,114.1v-12l-5.1,12h-2.4l-5-11.9v11.9H474V97.8h3.7l5.3,12.4l5.2-12.4h3.7v16.3H489.1z"/>
		<path class="st3" d="M497.3,112.9c-1.1-1.1-1.7-2.5-1.7-4.4V97.8h2.7v10.4c0,1.1,0.3,2,0.9,2.6c0.6,0.6,1.4,0.9,2.4,0.9
			c1.1,0,1.9-0.3,2.5-0.9c0.6-0.6,0.9-1.5,0.9-2.6V97.8h2.8v10.6c0,1.9-0.6,3.4-1.7,4.4s-2.6,1.6-4.4,1.6
			C499.9,114.5,498.4,113.9,497.3,112.9z"/>
		<path class="st3" d="M522.2,114.1l-8-12.3v12.3h-2.8V97.8h3.5l7.4,11.5V97.8h2.8v16.3H522.2z"/>
		<path class="st3" d="M529,114.1V97.8h2.8v16.3H529z"/>
		<path class="st3" d="M537.1,112.1c-1.6-1.5-2.4-3.6-2.4-6.1c0-2.5,0.8-4.6,2.4-6.1c1.6-1.6,3.5-2.3,5.8-2.3c2,0,3.6,0.5,4.8,1.5
			c1.3,1,2.1,2.3,2.5,3.8l-2.6,0.9c-0.3-1.1-0.8-1.9-1.6-2.6c-0.8-0.7-1.8-1-3.1-1c-1.5,0-2.7,0.5-3.8,1.5c-1.1,1-1.6,2.5-1.6,4.3
			c0,1.8,0.5,3.2,1.6,4.3c1.1,1,2.3,1.5,3.8,1.5c1.3,0,2.3-0.3,3.1-1c0.8-0.7,1.4-1.5,1.7-2.5l2.5,0.8c-0.4,1.5-1.2,2.8-2.5,3.8
			c-1.3,1-2.9,1.6-4.9,1.6C540.6,114.5,538.7,113.7,537.1,112.1z"/>
		<path class="st3" d="M562.1,110h-6.9l-1.5,4.1h-2.9l6.3-16.3h3.2l6.3,16.3h-3L562.1,110z M556.2,107.5h5l-2.5-6.7L556.2,107.5z"/>
		<path class="st3" d="M573.7,100.4v13.7h-2.8v-13.7h-5.3v-2.6H579v2.6H573.7z"/>
		<path class="st3" d="M581.2,114.1V97.8h10v2.6H584v4.3h6.6v2.5H584v4.3h7.3v2.6H581.2z"/>
	</g>
	<text transform="matrix(1 0 0 1 2585.3088 1694.6704)"><tspan x="0" y="0" class="st4" style="font-family:'CircularPro-Medium'; font-size:109.1681px;">DETECT</tspan><tspan x="421.2" y="0" style="font-family:'CircularPro-Medium'; font-size:109.1681px;"> </tspan><tspan x="448.2" y="0" class="st2" style="font-family:'CircularPro-Medium'; font-size:109.1681px;">|</tspan><tspan x="477.5" y="0" style="font-family:'CircularPro-Medium'; font-size:109.1681px;"> </tspan><tspan x="504.6" y="0" class="st0" style="font-family:'CircularPro-Medium'; font-size:109.1681px;">IDENTIFY</tspan><tspan x="990.9" y="0" style="font-family:'CircularPro-Medium'; font-size:109.1681px;"> </tspan><tspan x="1018" y="0" class="st2" style="font-family:'CircularPro-Medium'; font-size:109.1681px;">|</tspan><tspan x="1047.2" y="0" style="font-family:'CircularPro-Medium'; font-size:109.1681px;"> </tspan><tspan x="1074.3" y="0" class="st3" style="font-family:'CircularPro-Medium'; font-size:109.1681px;">COMMUNICATE</tspan></text>
</g>
</svg>
