<?xml version="1.0" encoding="utf-8"?>
<!-- Generator: Adobe Illustrator 24.3.0, SVG Export Plug-In . SVG Version: 6.00 Build 0)  -->
<svg version="1.1" id="Layer_1" xmlns="http://www.w3.org/2000/svg" xmlns:xlink="http://www.w3.org/1999/xlink" x="0px" y="0px"
	 viewBox="0 0 523.7 100" style="enable-background:new 0 0 523.7 100;" xml:space="preserve">
<style type="text/css">
	.st0{fill:#212121;}
	.st1{fill:#FFFFFF;}
	.st2{fill:#AF8249;}
	.st3{fill:#D6A348;}
	.st4{fill:#D9BD48;}
</style>
<rect class="st0" width="523.7" height="100"/>
<g id="Layer_4">
	<polygon class="st1" points="103.1,8.2 53.2,91.8 153.2,91.8 	"/>
	<polygon class="st2" points="146.9,88.3 125,51.7 103.2,88.3 	"/>
	<polygon class="st3" points="103.2,88.3 81.2,51.7 59.4,88.3 	"/>
	<polygon class="st4" points="125,51.7 103.1,15.1 81.2,51.7 	"/>
	<path class="st1" d="M166.2,55.6c-2.5,0-5-0.3-7.4-1c-2-0.5-3.9-1.4-5.6-2.6c-1.4-1-2.7-2.3-3.7-3.8c-1-1.4-1.7-2.9-2.2-4.5
		c-0.4-1.6-0.7-3.2-0.7-4.8c0-3.4,1-6.7,2.9-9.4c2-2.8,4.7-5.1,7.8-6.5c3.3-1.5,6.8-2.3,10.4-2.3c3.8,0,7.7,0.8,11.2,2.3l0.4,10
		h-1.4l-4.9-8c-1.7-1.3-3.8-2.1-6-2.1c-3.1-0.1-6,1.4-7.7,4c-1.9,2.7-2.9,6.2-2.9,10.5c0,5.2,1.1,9.1,3.2,11.9
		c1.8,2.6,4.8,4.1,8,4.1c1.4,0,2.8-0.3,4.1-0.8V42l-5.6-0.8v-2.1h16.7v2l-2.8,0.7v11.1l-1.9,0.6C174.3,54.7,170.2,55.5,166.2,55.6z"
		/>
	<path class="st1" d="M203.3,55.4l-0.6-4c-2.7,2.8-5.5,4.2-8.4,4.2c-1.9,0.1-3.8-0.6-5.2-1.8c-1.4-1.2-2-3.2-2-5.8V34.3l-3-1.5v-1.1
		l11.1-1.9v16.6c0,3.1,1.3,4.6,4,4.6c1.3,0,2.5-0.4,3.5-1.1V34.1l-3.2-1.4v-1.1l11.3-1.9v22l3.2,0.8v1.4L203.3,55.4z"/>
	<path class="st1" d="M222.3,55.6c-1.8,0.1-3.5-0.6-4.8-1.8c-1.2-1.2-1.9-2.8-1.9-4.5c-0.1-1.8,0.6-3.5,2-4.6c2-1.4,4.3-2.3,6.7-2.8
		l4.7-1.1v-3.9c0-1.3-0.4-2.5-1.1-3.6c-0.7-0.9-1.7-1.4-2.8-1.4c-0.7,0-1.3,0.1-1.9,0.5l-0.1,5.9c-1.1,0.4-2.3,0.6-3.4,0.6
		c-0.9,0-1.7-0.2-2.4-0.8c-0.6-0.5-0.9-1.3-0.9-2.1c0-1.6,1.2-3,3.7-4.5c2.6-1.4,5.5-2.2,8.4-2.1c5.7,0,8.6,2.6,8.6,7.9v12.8
		c-0.1,0.5,0.1,1.1,0.4,1.5c0.4,0.3,1,0.4,1.5,0.3h1.8v1.2c-2,1.3-4.4,2.1-6.8,2.2c-2.9,0-4.4-1.4-4.5-4.1h-0.2
		C227.3,54.2,225,55.6,222.3,55.6z M226.6,51.3c1,0,1.9-0.5,2.6-1.2v-7.6l-1.7,0.5c-2.9,0.9-4.3,2.4-4.3,4.6c0,1,0.3,1.9,0.9,2.7
		C224.7,50.9,225.6,51.3,226.6,51.3z"/>
	<path class="st1" d="M241.4,54.8v-1.7l3-0.8V35.1l-3-2v-0.9l10-2.8h0.3L252,36h0.2l0.8-1.5c0.6-1.4,1.5-2.8,2.7-3.9
		c0.9-0.8,2.1-1.2,3.4-1.2c1,0,2,0.3,2.8,1c0.8,0.7,1.3,1.8,1.2,2.8c0,1.2-0.4,2.3-1.3,3.1c-1.1,0.8-2.4,1.3-3.7,1.3l-2.8-2.3
		c-0.6,0.3-1.1,0.7-1.5,1.2c-0.5,0.6-0.9,1.3-1.1,2v13.8l4.4,0.8v1.7H241.4z"/>
	<path class="st1" d="M277.2,21.2v-0.9l12-2.8v34.1l2.9,0.7v1.4l-10,1.7l-0.7-3.2c-1.9,2.1-4.5,3.3-7.4,3.3
		c-2.8,0.1-5.6-1.2-7.4-3.4c-2-2.4-3-5.5-2.9-8.6c-0.1-3.8,1.5-7.4,4.4-9.9c2.9-2.6,6.8-4,10.7-3.9c0.5,0,1.2,0,2.2,0.1v-6.9
		L277.2,21.2z M278.7,51.5c0.8,0,1.7-0.2,2.4-0.7V34.6c-1.1-2-2.6-3-4.3-3c-1.5,0-2.8,0.9-3.5,2.2c-1,1.4-1.4,3.6-1.4,6.6
		c-0.1,2.8,0.6,5.6,2,8C275.1,50.4,276.8,51.5,278.7,51.5z"/>
	<path class="st1" d="M294.2,54.8v-1.7l3.2-0.8V35.1l-3.1-2.2V32l11.2-2.5v22.9l3.2,0.8v1.7H294.2z M301.5,25.9
		c-1.1,0-2.1-0.4-2.9-1.2c-1.6-1.6-1.6-4.2,0-5.8c0.8-0.8,1.8-1.2,2.9-1.2c1.1,0,2.2,0.4,3,1.2c1.6,1.6,1.6,4.1,0.1,5.8
		c0,0,0,0.1-0.1,0.1C303.6,25.5,302.6,25.9,301.5,25.9z"/>
	<path class="st1" d="M317.2,55.6c-1.8,0.1-3.5-0.6-4.8-1.8c-1.2-1.2-1.9-2.8-1.9-4.5c-0.1-1.8,0.6-3.5,2-4.6c2-1.4,4.3-2.3,6.7-2.8
		l4.7-1.1v-3.9c0-1.3-0.4-2.5-1.2-3.6c-0.7-0.9-1.7-1.4-2.8-1.4c-0.7,0-1.3,0.1-1.9,0.5l-0.1,5.9c-1.1,0.4-2.3,0.6-3.4,0.6
		c-0.9,0-1.7-0.2-2.5-0.8c-0.6-0.5-0.9-1.3-0.9-2.1c0-1.6,1.2-3,3.7-4.5c2.6-1.4,5.5-2.2,8.5-2.1c5.7,0,8.6,2.6,8.6,7.9v12.8
		c-0.1,0.5,0.1,1.1,0.4,1.5c0.4,0.3,1,0.4,1.5,0.3h1.8v1.2c-2,1.3-4.4,2.1-6.8,2.2c-2.9,0-4.4-1.4-4.5-4.1h-0.2
		C322.2,54.2,319.9,55.6,317.2,55.6z M321.5,51.3c1,0,1.9-0.5,2.6-1.2v-7.6l-1.7,0.5c-2.9,0.9-4.3,2.4-4.3,4.6c0,1,0.3,1.9,0.9,2.7
		C319.6,50.9,320.5,51.3,321.5,51.3z"/>
	<path class="st1" d="M336.3,54.8v-1.7l3-0.8V35.1l-3-2v-0.9l9.9-2.8h0.2l0.5,4.7h0.1c3-3.1,5.9-4.6,8.9-4.6c2-0.1,3.9,0.6,5.3,1.9
		c1.2,1.3,1.9,3.2,1.9,5.8v15.2l3.1,0.8v1.7h-13.8v-1.7l2.6-0.8V38.9c0-1.2-0.4-2.5-1.1-3.4c-0.7-0.9-1.9-1.3-3-1.2
		c-1.3,0.1-2.5,0.5-3.5,1.2v16.9l2.6,0.8v1.7H336.3z"/>
	<path class="st1" d="M395.2,20.8c4.8-0.1,9.4,1.5,13,4.7c3.5,3.1,5.4,7.6,5.3,12.3c0.2,4.9-1.9,9.6-5.5,12.9
		c-7.3,6.6-18.3,6.7-25.8,0.2c-3.5-3.2-5.5-7.8-5.3-12.5c-0.1-4.8,1.9-9.4,5.5-12.6C385.9,22.5,390.5,20.7,395.2,20.8z M396,53.6
		c2.5,0,4.4-1.3,5.9-3.8c1.4-2.5,2.1-6,2.1-10.5c0.1-4-0.8-8-2.6-11.6c-1.8-3.3-4.1-4.9-6.9-4.9c-2.5,0-4.8,1.4-5.9,3.7
		c-1.4,2.5-2.1,6-2.1,10.5c-0.1,4.1,0.8,8.1,2.7,11.8C391,52,393.2,53.6,396,53.6L396,53.6z"/>
	<path class="st1" d="M415.9,54.8v-1.7l3-0.8V35.1l-3-2v-0.9l9.9-2.8h0.2l0.5,4.7h0.1c3-3.1,5.9-4.6,8.9-4.6c2-0.1,3.9,0.6,5.3,1.9
		c1.2,1.3,1.9,3.2,1.9,5.8v15.2l3.1,0.8v1.7H432v-1.7l2.6-0.8V38.9c0-1.2-0.4-2.5-1.1-3.4c-0.7-0.9-1.9-1.3-3-1.2
		c-1.3,0.1-2.5,0.5-3.5,1.2v16.9l2.6,0.8v1.7H415.9z"/>
	<path class="st1" d="M459,55.5c-3.3,0.1-6.4-1.2-8.5-3.7c-2.2-2.5-3.4-5.8-3.3-9.1c-0.1-3.5,1.3-6.9,3.8-9.4
		c2.3-2.4,5.4-3.8,8.7-3.9c6.1,0,9.5,3.6,10.4,10.8h-15.9c-0.1,2.7,0.9,5.3,2.8,7.2c1.7,1.7,4,2.6,6.4,2.6c2.3-0.1,4.5-0.9,6.3-2.1
		l0.8,0.9C467.2,53.2,463.4,55.5,459,55.5z M458.2,31.5c-1.1,0-2.2,0.7-2.7,1.7c-0.8,1.6-1.3,3.3-1.3,5.1h7.9
		c-0.1-1.7-0.5-3.4-1.3-5C460.4,32.2,459.3,31.5,458.2,31.5L458.2,31.5z"/>
	<path class="st3" d="M165.9,77V64.7h4.4c1.6-0.1,3.1,0.5,4.3,1.7c1.2,1.2,1.8,2.8,1.7,4.5c0.1,1.7-0.5,3.3-1.7,4.5
		c-1.2,1.1-2.7,1.7-4.3,1.6L165.9,77z M170.2,75.1c1.1,0,2.1-0.4,2.8-1.1c0.8-0.8,1.2-2,1.1-3.1c0.1-1.2-0.3-2.3-1.1-3.2
		c-0.7-0.7-1.7-1.1-2.8-1.1H168v8.5L170.2,75.1z"/>
	<path class="st3" d="M178.4,77V64.7h7.6v2h-5.5v3.3h5v1.9h-5V75h5.5v2H178.4z"/>
	<path class="st3" d="M193.5,66.6V77h-2.1V66.6h-4v-2h10.1v2H193.5z"/>
	<path class="st3" d="M199.2,77V64.7h7.6v2h-5.5v3.3h5v1.9h-5V75h5.5v2H199.2z"/>
	<path class="st3" d="M210.3,75.5c-2.4-2.6-2.4-6.7,0-9.3c1.2-1.2,2.7-1.8,4.4-1.8c1.3-0.1,2.6,0.3,3.6,1.1c0.9,0.7,1.6,1.7,1.9,2.9
		l-2,0.7c-0.2-0.8-0.6-1.4-1.2-1.9c-0.7-0.5-1.5-0.8-2.4-0.8c-1.1,0-2.1,0.4-2.9,1.2c-0.8,0.9-1.3,2.1-1.2,3.3
		c-0.1,1.2,0.4,2.4,1.2,3.2c0.8,0.8,1.8,1.2,2.9,1.2c0.9,0,1.7-0.2,2.4-0.8c0.6-0.5,1.1-1.2,1.3-1.9l1.9,0.6c-0.3,1.1-1,2.2-1.9,2.9
		c-1,0.8-2.3,1.2-3.7,1.2C213,77.3,211.5,76.6,210.3,75.5z"/>
	<path class="st3" d="M227.1,66.6V77H225V66.6h-4v-2h10.1v2H227.1z"/>
	<path class="st1" d="M237.1,79.6V63.1h1.7v16.5H237.1z"/>
	<path class="st4" d="M246.1,77V64.7h2.1V77H246.1z"/>
	<path class="st4" d="M251.1,77V64.7h4.4c1.6-0.1,3.1,0.5,4.3,1.7c1.2,1.2,1.8,2.8,1.7,4.5c0.1,1.7-0.5,3.3-1.7,4.5
		c-1.2,1.1-2.7,1.7-4.3,1.6L251.1,77z M255.4,75.1c1,0,2.1-0.4,2.8-1.1c0.8-0.8,1.2-2,1.1-3.1c0.1-1.2-0.3-2.3-1.1-3.2
		c-0.7-0.7-1.7-1.1-2.8-1.1h-2.2v8.5L255.4,75.1z"/>
	<path class="st4" d="M263.7,77V64.7h7.6v2h-5.5v3.3h5v1.9h-5V75h5.5v2H263.7z"/>
	<path class="st4" d="M281.9,77l-6.1-9.3V77h-2.1V64.7h2.7l5.6,8.7v-8.7h2.1V77H281.9z"/>
	<path class="st4" d="M291.9,66.6V77h-2.1V66.6h-4v-2h10.1v2H291.9z"/>
	<path class="st4" d="M297.6,77V64.7h2.1V77H297.6z"/>
	<path class="st4" d="M302.7,77V64.7h7.7v2h-5.6v3.5h5V72h-5v5H302.7z"/>
	<path class="st4" d="M311.1,64.7h2.5l3,5.2l3-5.2h2.3l-4.3,7.1V77h-2.1v-5.2L311.1,64.7z"/>
	<path class="st1" d="M327.8,79.6V63.1h1.7v16.5H327.8z"/>
	<path class="st2" d="M337.8,75.5c-2.4-2.6-2.4-6.7,0-9.3c1.2-1.2,2.7-1.8,4.4-1.8c1.3-0.1,2.6,0.3,3.6,1.1c0.9,0.7,1.6,1.7,1.9,2.9
		l-2,0.7c-0.4-1.7-1.9-2.8-3.6-2.7c-1.1,0-2.1,0.4-2.9,1.2c-1.6,1.9-1.6,4.6,0,6.5c0.8,0.8,1.8,1.2,2.9,1.2c0.9,0,1.7-0.2,2.4-0.8
		c0.6-0.5,1.1-1.2,1.3-1.9l1.9,0.6c-0.3,1.1-1,2.2-1.9,2.9c-1,0.8-2.3,1.2-3.7,1.2C340.5,77.3,339,76.6,337.8,75.5z"/>
	<path class="st2" d="M349.9,67.4c0.5-0.9,1.3-1.7,2.3-2.2c1.9-1,4.2-1,6.1,0c1,0.5,1.8,1.3,2.3,2.2c1.2,2.1,1.2,4.7,0,6.9
		c-0.5,0.9-1.3,1.7-2.3,2.2c-1.9,1-4.2,1-6.1,0c-1-0.5-1.8-1.3-2.3-2.2C348.7,72.1,348.7,69.5,349.9,67.4z M352.4,74.1
		c1.6,1.6,4.2,1.6,5.8,0c1.6-1.9,1.6-4.7,0-6.5c-1.6-1.6-4.2-1.6-5.8,0C350.7,69.4,350.7,72.2,352.4,74.1z"/>
	<path class="st2" d="M375.2,77v-9.1l-3.8,9.1h-1.8l-3.8-9v9h-2V64.7h2.8l4,9.4l3.9-9.4h2.8V77H375.2z"/>
	<path class="st2" d="M391.7,77v-9.1l-3.8,9.1h-1.8l-3.8-9v9h-2V64.7h2.7l4,9.4l3.9-9.4h2.8V77H391.7z"/>
	<path class="st2" d="M397.9,76c-0.9-0.9-1.4-2.1-1.3-3.3v-8h2.1v7.9c0,0.7,0.2,1.4,0.7,2c0.5,0.5,1.2,0.7,1.9,0.7
		c0.7,0,1.4-0.2,1.9-0.7c0.5-0.6,0.7-1.3,0.7-2v-7.9h2.1v8c0.1,1.2-0.4,2.5-1.3,3.3C402.6,77.6,399.8,77.6,397.9,76L397.9,76z"/>
	<path class="st2" d="M416.7,77l-6.1-9.3V77h-2.1V64.7h2.7l5.6,8.7v-8.7h2.1V77H416.7z"/>
	<path class="st2" d="M421.9,77V64.7h2.1V77H421.9z"/>
	<path class="st2" d="M428,75.5c-2.4-2.6-2.4-6.7,0-9.3c1.2-1.2,2.7-1.8,4.4-1.8c1.3-0.1,2.6,0.3,3.6,1.1c0.9,0.7,1.6,1.7,1.9,2.9
		l-2,0.7c-0.2-0.8-0.6-1.4-1.2-1.9c-0.7-0.5-1.5-0.8-2.4-0.8c-1.1,0-2.1,0.4-2.9,1.2c-0.8,0.9-1.3,2.1-1.2,3.3
		c-0.1,1.2,0.4,2.4,1.2,3.2c0.8,0.8,1.8,1.2,2.9,1.2c0.9,0,1.7-0.2,2.4-0.8c0.6-0.5,1.1-1.2,1.3-1.9l1.9,0.6c-0.3,1.1-1,2.2-1.9,2.9
		c-1,0.8-2.3,1.2-3.7,1.2C430.7,77.3,429.2,76.6,428,75.5z"/>
	<path class="st2" d="M446.9,73.9h-5.2l-1.1,3.1h-2.2l4.8-12.3h2.4l4.8,12.3h-2.3L446.9,73.9z M442.4,72h3.8l-1.9-5L442.4,72z"/>
	<path class="st2" d="M455.7,66.6V77h-2.1V66.6h-4v-2h10.1v2H455.7z"/>
	<path class="st2" d="M461.4,77V64.7h7.6v2h-5.5v3.3h5v1.9h-5V75h5.5v2H461.4z"/>
</g>
<image style="overflow:visible;" width="60" height="48" xlink:href="../../../../Screen Shot 2020-10-27 at 5.51.03 PM.png"  transform="matrix(0.5 0 0 0.5 -82 278.8898)">
</image>
</svg>
