<svg xmlns="http://www.w3.org/2000/svg" viewBox="0 0 1440 1440"><defs><style>.cls-1{fill:#fff;}.cls-2{fill:#af8249;}.cls-3{fill:#d6a348;}.cls-4{fill:#d9bd48;}</style></defs><g id="Layer_4" data-name="Layer 4"><polygon class="cls-1" points="717.09 136.44 204.39 995.56 1231.16 995.56 717.09 136.44"/><polygon class="cls-2" points="1151.27 948.5 934.23 585.78 717.77 948.5 1151.27 948.5"/><polygon class="cls-3" points="717.77 948.5 500.74 585.78 284.28 948.5 717.77 948.5"/><polygon class="cls-4" points="934.23 585.78 717.2 223.07 500.74 585.78 934.23 585.78"/><path class="cls-1" d="M225.25,1194a92.84,92.84,0,0,1-25.79-3.36,61.36,61.36,0,0,1-19.33-9,55.92,55.92,0,0,1-12.94-13.12,52.06,52.06,0,0,1-7.59-15.61,60.43,60.43,0,0,1-2.33-16.74,55.48,55.48,0,0,1,10.18-32.52,66.68,66.68,0,0,1,26.92-22.43,83.74,83.74,0,0,1,36.06-7.85,106.39,106.39,0,0,1,38.82,7.59l1.55,34.51h-5l-16.91-27.78q-10.19-7.43-20.88-7.42-16.56,0-26.57,14t-10,36.41q0,26.91,11.12,41.24t27.7,14.32a33.61,33.61,0,0,0,14.15-2.93v-36.41l-19.33-2.76v-7.42h57.63v6.9l-9.66,2.42v38.3l-6.56,2.07Q241.3,1194,225.25,1194Z"/><path class="cls-1" d="M353.8,1193.3l-2.07-14q-14.16,14.49-29,14.49-11,0-18.12-6.3t-7.07-20.1v-47.28L287,1115v-3.8l38.48-6.73v57.29q0,16.05,13.8,16a20.35,20.35,0,0,0,12.08-3.79v-54.53l-11-5v-3.8l39-6.72v76.26l11.05,2.76v4.83Z"/><path class="cls-1" d="M419.37,1193.82q-10,0-16.48-6.21a20.81,20.81,0,0,1-6.47-15.7q0-10.19,7.07-16t23.3-9.58l16.39-4V1129q-.53-7.6-4.06-12.34a11.47,11.47,0,0,0-9.75-4.75c-2.87,0-5.06.58-6.55,1.73l-.52,20.53a29.49,29.49,0,0,1-11.91,2.07q-5.34,0-8.45-2.59a9.1,9.1,0,0,1-3.11-7.42q0-8.1,12.86-15.44a57.92,57.92,0,0,1,29.24-7.33q29.69,0,29.68,27.43v44.35q0,4.14,1.3,5.26c.86.75,2.55,1.12,5.09,1.12h6.21v4.31q-13.12,7.61-23.47,7.6-14.83,0-15.7-14.15h-.69Q433.35,1193.82,419.37,1193.82ZM434.2,1179q4.83,0,9-4.14v-26.4l-5.87,1.9q-14.83,4.67-14.84,15.87a13.26,13.26,0,0,0,3.19,9.24A11,11,0,0,0,434.2,1179Z"/><path class="cls-1" d="M485.62,1191.23v-5.86l10.53-2.59v-59.7L485.8,1116v-3.1l34.68-9.84h1l1,23h.69l2.59-5.35q4.65-9.48,9.23-13.37a17.08,17.08,0,0,1,11.47-3.88,14.15,14.15,0,0,1,9.58,3.53q4,3.54,4,9.75,0,6.74-4.4,10.7t-12.85,4.49l-9.67-8.11a15.63,15.63,0,0,0-5.17,4.14,18.89,18.89,0,0,0-4,6.9v48l15.36,2.59v5.86Z"/><path class="cls-1" d="M609.34,1074.77v-2.94l41.58-9.66v118l10,2.59v4.83l-34.68,5.69-2.42-11q-10.87,11.57-25.36,11.56A31.89,31.89,0,0,1,573,1182.17q-9.93-11.64-9.93-29.76,0-20.88,15.36-34.25t36.93-13.37q2.58,0,7.59.52v-23.82Zm5.34,104.9a15.73,15.73,0,0,0,8.29-2.41v-55.91Q617.09,1111,608.13,1111q-7.25,0-12.25,7.42t-5,22.78q0,16.56,6.82,27.52T614.68,1179.67Z"/><path class="cls-1" d="M668.17,1191.23v-5.86l11-2.59v-59.7l-10.69-7.77v-3.1l38.82-8.8v79.37l11,2.59v5.86Zm25.19-100.07a13.51,13.51,0,0,1-10-4.23,14.38,14.38,0,0,1,0-20.19,13.5,13.5,0,0,1,10-4.22,14,14,0,0,1,10.18,4.22,14.06,14.06,0,0,1,.09,20.19A14,14,0,0,1,693.36,1091.16Z"/><path class="cls-1" d="M747.71,1193.82q-10,0-16.48-6.21a20.84,20.84,0,0,1-6.47-15.7q0-10.19,7.08-16t23.29-9.58l16.39-4V1129c-.34-5.07-1.7-9.18-4-12.34a11.48,11.48,0,0,0-9.75-4.75c-2.88,0-5.06.58-6.56,1.73l-.52,20.53a29.44,29.44,0,0,1-11.9,2.07c-3.57,0-6.38-.86-8.46-2.59s-3.1-4.19-3.1-7.42q0-8.1,12.85-15.44a58,58,0,0,1,29.25-7.33q29.67,0,29.68,27.43v44.35q0,4.14,1.29,5.26t5.09,1.12h6.21v4.31q-13.11,7.61-23.46,7.6-14.85,0-15.7-14.15h-.7Q761.69,1193.82,747.71,1193.82ZM762.55,1179q4.83,0,9-4.14v-26.4l-5.86,1.9q-14.85,4.67-14.84,15.87a13.26,13.26,0,0,0,3.19,9.24A11,11,0,0,0,762.55,1179Z"/><path class="cls-1" d="M814,1191.23v-5.86l10.52-2.59v-59.7L814.14,1116v-3.1l34.16-9.84h.87l1.55,16.22h.52q15.36-15.87,30.71-15.87,11.91,0,18.38,6.64t6.47,20.1v52.63l10.7,2.76v5.69H869.7v-5.86l9.15-2.59V1136c-.12-5-1.41-8.91-3.89-11.91s-6-4.42-10.44-4.31a21.81,21.81,0,0,0-12.07,4.31v58.67l9.14,2.59v5.86Z"/><path class="cls-1" d="M1017.91,1073.39q26.75,0,44.95,16.3t18.2,42.53q0,27.27-19.15,44.52a64.7,64.7,0,0,1-44.69,17.25q-26.22,0-44.51-16.39t-18.29-43.31q0-26,19.06-43.48T1017.91,1073.39Zm2.42,113.53q12.95,0,20.27-13t7.33-36.32q0-23.29-9.14-40.2T1015,1080.46q-12.94,0-20.28,12.85t-7.33,36.32q0,24.16,9.41,40.73T1020.33,1186.92Z"/><path class="cls-1" d="M1089.52,1191.23v-5.86l10.52-2.59v-59.7l-10.35-7.08v-3.1l34.16-9.84h.86l1.56,16.22h.52q15.35-15.87,30.71-15.87,11.89,0,18.37,6.64t6.47,20.1v52.63l10.7,2.76v5.69h-47.79v-5.86l9.14-2.59V1136c-.11-5-1.41-8.91-3.88-11.91s-6-4.42-10.44-4.31a21.84,21.84,0,0,0-12.08,4.31v58.67l9.15,2.59v5.86Z"/><path class="cls-1" d="M1238.42,1193.48q-18.29,0-29.59-12.77t-11.3-31.58a44.2,44.2,0,0,1,13.46-32.44q13.46-13.45,30.19-13.45,31.58,0,35.89,37.26h-55.21q.35,16.05,9.66,25a30.72,30.72,0,0,0,22.08,9q9.66,0,21.92-7.42l2.76,3.28Q1261.2,1193.47,1238.42,1193.48Zm-2.93-83q-5.54,0-9.23,6t-4.4,17.69h27.43q-.87-10.69-4.4-17.17T1235.49,1110.48Z"/><path class="cls-3" d="M198.22,1294.46v-42.19h14.93a20.24,20.24,0,0,1,14.73,5.65q5.81,5.65,5.8,15.53t-5.83,15.41a20.47,20.47,0,0,1-14.76,5.6Zm14.63-6.55a13.13,13.13,0,0,0,9.61-3.72q3.78-3.72,3.78-10.74t-3.75-10.86a12.91,12.91,0,0,0-9.58-3.78h-7.55v29.1Z"/><path class="cls-3" d="M241.18,1294.46v-42.19h26.06v6.66H248.32v11.19h17.14v6.49H248.32v11.18h18.92v6.67Z"/><path class="cls-3" d="M292.77,1259v35.47h-7.14V1259H271.94v-6.72h34.58V1259Z"/><path class="cls-3" d="M312.35,1294.46v-42.19h26.06v6.66H319.49v11.19h17.14v6.49H319.49v11.18h18.92v6.67Z"/><path class="cls-3" d="M350.46,1289.34q-6.21-6-6.21-15.95t6.3-16a20.86,20.86,0,0,1,14.94-6.07q7.62,0,12.52,3.87a17.92,17.92,0,0,1,6.46,9.82l-6.72,2.26a12.22,12.22,0,0,0-4.11-6.66,12.35,12.35,0,0,0-8.15-2.56,13.58,13.58,0,0,0-9.79,4q-4.14,4-4.13,11.27,0,7.08,4.1,11.1a13.62,13.62,0,0,0,9.88,4,12.33,12.33,0,0,0,8.15-2.68,13.57,13.57,0,0,0,4.4-6.61l6.55,2.15a18.69,18.69,0,0,1-6.52,9.93q-5,4-12.58,4A20.91,20.91,0,0,1,350.46,1289.34Z"/><path class="cls-3" d="M408,1259v35.47H400.9V1259H387.21v-6.72h34.57V1259Z"/><path class="cls-1" d="M442.37,1303.56v-56.65h5.84v56.65Z"/><path class="cls-4" d="M473.08,1294.46v-42.19h7.26v42.19Z"/><path class="cls-4" d="M490.45,1294.46v-42.19h14.94a20.24,20.24,0,0,1,14.73,5.65q5.8,5.65,5.8,15.53t-5.83,15.41a20.47,20.47,0,0,1-14.76,5.6Zm14.64-6.55a13.13,13.13,0,0,0,9.61-3.72q3.78-3.72,3.78-10.74t-3.75-10.86a12.91,12.91,0,0,0-9.58-3.78H497.6v29.1Z"/><path class="cls-4" d="M533.42,1294.46v-42.19h26.06v6.66H540.56v11.19H557.7v6.49H540.56v11.18h18.92v6.67Z"/><path class="cls-4" d="M596,1294.46l-20.83-32v32h-7.14v-42.19h9.11l19.16,29.93v-29.93h7.14v42.19Z"/><path class="cls-4" d="M630.12,1259v35.47H623V1259H609.29v-6.72h34.57V1259Z"/><path class="cls-4" d="M649.7,1294.46v-42.19H657v42.19Z"/><path class="cls-4" d="M667.07,1294.46v-42.19h26.24V1259h-19.1v11.84h17.14v6.61H674.21v17Z"/><path class="cls-4" d="M696.05,1252.27h8.45l10.12,17.67,10.17-17.67h8L718,1276.61v17.85h-7.14v-17.85Z"/><path class="cls-1" d="M753.24,1303.56v-56.65h5.83v56.65Z"/><path class="cls-2" d="M787.6,1289.34q-6.21-6-6.22-15.95t6.31-16a20.86,20.86,0,0,1,14.94-6.07q7.62,0,12.52,3.87a17.92,17.92,0,0,1,6.46,9.82l-6.72,2.26a12.22,12.22,0,0,0-4.11-6.66,12.35,12.35,0,0,0-8.15-2.56,13.58,13.58,0,0,0-9.79,4q-4.14,4-4.14,11.27,0,7.08,4.11,11.1a13.62,13.62,0,0,0,9.88,4,12.33,12.33,0,0,0,8.15-2.68,13.57,13.57,0,0,0,4.4-6.61l6.55,2.15a18.74,18.74,0,0,1-6.52,9.93q-5,4-12.58,4A20.91,20.91,0,0,1,787.6,1289.34Z"/><path class="cls-2" d="M829.08,1261.58a20.27,20.27,0,0,1,7.88-7.65,22.71,22.71,0,0,1,20.95,0,20.48,20.48,0,0,1,7.91,7.65,23.88,23.88,0,0,1,0,23.53,20.35,20.35,0,0,1-7.91,7.68,22.71,22.71,0,0,1-20.95,0,20.14,20.14,0,0,1-7.88-7.68,24.15,24.15,0,0,1,0-23.53Zm8.42,23a14.32,14.32,0,0,0,19.9,0q4.2-4,4.2-11.22t-4.2-11.21a14.32,14.32,0,0,0-19.9,0q-4.17,4-4.17,11.21T837.5,1284.55Z"/><path class="cls-2" d="M915.81,1294.46v-31.07l-13.15,31.07h-6.19l-13-31v31h-7v-42.19H886l13.68,32.19,13.51-32.19h9.7v42.19Z"/><path class="cls-2" d="M972.34,1294.46v-31.07l-13.15,31.07H953l-13-31v31h-7v-42.19h9.52l13.69,32.19,13.5-32.19h9.7v42.19Z"/><path class="cls-2" d="M993.47,1291.24q-4.41-4.1-4.4-11.48v-27.49h7.08v27.07a9.5,9.5,0,0,0,2.29,6.82,9.6,9.6,0,0,0,12.7,0q2.26-2.37,2.26-6.84v-27.07h7.14v27.49q0,7.38-4.43,11.48a17.64,17.64,0,0,1-22.64,0Z"/><path class="cls-2" d="M1058.15,1294.46l-20.82-32v32h-7.14v-42.19h9.1l19.16,29.93v-29.93h7.14v42.19Z"/><path class="cls-2" d="M1075.71,1294.46v-42.19H1083v42.19Z"/><path class="cls-2" d="M1096.75,1289.34q-6.23-6-6.22-15.95t6.31-16a20.82,20.82,0,0,1,14.93-6.07q7.62,0,12.53,3.87a18,18,0,0,1,6.45,9.82l-6.72,2.26a12.16,12.16,0,0,0-4.11-6.66,12.35,12.35,0,0,0-8.15-2.56,13.58,13.58,0,0,0-9.79,4q-4.12,4-4.13,11.27,0,7.08,4.1,11.1a13.62,13.62,0,0,0,9.88,4,12.33,12.33,0,0,0,8.15-2.68,13.59,13.59,0,0,0,4.41-6.61l6.54,2.15a18.73,18.73,0,0,1-6.51,9.93q-5,4-12.59,4A20.87,20.87,0,0,1,1096.75,1289.34Z"/><path class="cls-2" d="M1161.58,1283.86h-17.85l-3.93,10.6h-7.56l16.43-42.19h8.27l16.42,42.19h-7.79Zm-15.35-6.6h12.85l-6.43-17.26Z"/><path class="cls-2" d="M1191.69,1259v35.47h-7.14V1259h-13.68v-6.72h34.57V1259Z"/><path class="cls-2" d="M1211.27,1294.46v-42.19h26.06v6.66h-18.92v11.19h17.14v6.49h-17.14v11.18h18.92v6.67Z"/></g></svg>