<svg xmlns="http://www.w3.org/2000/svg" viewBox="0 0 232.54 254.77"><defs><style>.cls-1{fill:#d6a348;}.cls-2{fill:#fff;}.cls-3{fill:#af8249;}.cls-4{fill:#d9bd48;}</style></defs><g id="Layer_4" data-name="Layer 4"><path class="cls-1" d="M49,197.12v-5.63h2a2.69,2.69,0,0,1,2,.75,2.82,2.82,0,0,1-2,4.88Zm1.95-.88a1.73,1.73,0,0,0,1.28-.49,1.93,1.93,0,0,0,.51-1.44,2,2,0,0,0-.5-1.45,1.76,1.76,0,0,0-1.28-.5h-1v3.88Z"/><path class="cls-1" d="M54.69,197.12v-5.63h3.48v.88H55.64v1.5h2.29v.86H55.64v1.5h2.53v.89Z"/><path class="cls-1" d="M61.57,192.38v4.74h-1v-4.74H58.79v-.89h4.62v.89Z"/><path class="cls-1" d="M64.19,197.12v-5.63h3.47v.88H65.14v1.5h2.29v.86H65.14v1.5h2.52v.89Z"/><path class="cls-1" d="M69.27,196.43a2.94,2.94,0,0,1,2-5.06,2.66,2.66,0,0,1,1.67.51,2.41,2.41,0,0,1,.86,1.31l-.9.3a1.67,1.67,0,0,0-.54-.89,1.71,1.71,0,0,0-1.09-.34,1.81,1.81,0,0,0-1.31.54,2.31,2.31,0,0,0,0,3,1.83,1.83,0,0,0,1.32.53,1.62,1.62,0,0,0,1.08-.36,1.77,1.77,0,0,0,.59-.88l.87.29a2.41,2.41,0,0,1-.87,1.32,2.56,2.56,0,0,1-1.67.54A2.79,2.79,0,0,1,69.27,196.43Z"/><path class="cls-1" d="M77,192.38v4.74H76v-4.74H74.18v-.89h4.61v.89Z"/><polygon class="cls-2" points="116.17 19.79 41.36 145.16 191.19 145.16 116.17 19.79"/><polygon class="cls-3" points="189.88 153.32 153.02 91.72 116.27 153.32 189.88 153.32"/><polygon class="cls-1" points="116.27 153.32 79.41 91.72 42.65 153.32 116.27 153.32"/><polygon class="cls-4" points="153.02 91.72 116.17 30.13 79.41 91.72 153.02 91.72"/><path d="M51.15,187.34a12.52,12.52,0,0,1-3.41-.44,8.16,8.16,0,0,1-2.55-1.19A7.2,7.2,0,0,1,43.48,184a7,7,0,0,1-1-2.07,8.14,8.14,0,0,1-.31-2.21,7.32,7.32,0,0,1,1.35-4.3,8.84,8.84,0,0,1,3.56-3,11.09,11.09,0,0,1,4.77-1,14.06,14.06,0,0,1,5.13,1l.2,4.56h-.66l-2.23-3.67a4.61,4.61,0,0,0-2.76-1A4.12,4.12,0,0,0,48,174.16,8.08,8.08,0,0,0,46.68,179a8.73,8.73,0,0,0,1.47,5.45,4.47,4.47,0,0,0,3.66,1.89,4.37,4.37,0,0,0,1.87-.38v-4.82l-2.55-.36v-1h7.62v.91l-1.28.32v5.06l-.87.28A19.69,19.69,0,0,1,51.15,187.34Z"/><path d="M68.15,187.25l-.28-1.85A5.39,5.39,0,0,1,64,187.32a3.48,3.48,0,0,1-2.39-.83,3.38,3.38,0,0,1-.94-2.66v-6.25l-1.39-.69v-.5l5.09-.89v7.58c0,1.41.6,2.12,1.82,2.12a2.74,2.74,0,0,0,1.6-.5v-7.21l-1.46-.67v-.5l5.15-.89v10.09l1.46.36v.64Z"/><path d="M76.82,187.32a3,3,0,0,1-2.18-.82,2.77,2.77,0,0,1-.86-2.08,2.56,2.56,0,0,1,.94-2.11A7.84,7.84,0,0,1,77.8,181l2.17-.52v-1.78a3.07,3.07,0,0,0-.54-1.63,1.51,1.51,0,0,0-1.29-.63,1.43,1.43,0,0,0-.87.23l-.07,2.72a3.92,3.92,0,0,1-1.57.27,1.76,1.76,0,0,1-1.12-.34,1.22,1.22,0,0,1-.41-1c0-.72.57-1.4,1.7-2a7.72,7.72,0,0,1,3.87-1q3.92,0,3.92,3.63v5.86a1,1,0,0,0,.17.7,1.1,1.1,0,0,0,.68.15h.82v.57a6.35,6.35,0,0,1-3.1,1,1.82,1.82,0,0,1-2.08-1.87H80A3.81,3.81,0,0,1,76.82,187.32Zm2-2a1.71,1.71,0,0,0,1.19-.55v-3.49l-.78.25c-1.31.41-2,1.11-2,2.1a1.76,1.76,0,0,0,.42,1.22A1.46,1.46,0,0,0,78.78,185.36Z"/><path d="M85.58,187v-.78l1.39-.34V178L85.6,177v-.41l4.59-1.3h.13l.14,3h.09l.34-.7a5.53,5.53,0,0,1,1.22-1.77,2.3,2.3,0,0,1,1.52-.52,1.88,1.88,0,0,1,1.27.47,1.64,1.64,0,0,1,.53,1.29,1.82,1.82,0,0,1-.58,1.42,2.74,2.74,0,0,1-1.7.59l-1.28-1.07a2.05,2.05,0,0,0-.68.54,2.66,2.66,0,0,0-.53.92v6.34l2,.34V187Z"/><path d="M101.93,171.58v-.39l5.5-1.28v15.61l1.33.34v.64l-4.59.75-.32-1.46a4.47,4.47,0,0,1-3.35,1.53,4.23,4.23,0,0,1-3.37-1.54,5.89,5.89,0,0,1-1.31-3.94,5.75,5.75,0,0,1,2-4.53,7.21,7.21,0,0,1,4.88-1.76,9.43,9.43,0,0,1,1,.07v-3.15Zm.71,13.87a2.12,2.12,0,0,0,1.1-.32v-7.39a2.25,2.25,0,0,0-2-1.37,2,2,0,0,0-1.62,1,5.46,5.46,0,0,0-.66,3,6.8,6.8,0,0,0,.9,3.64A2.61,2.61,0,0,0,102.64,185.45Z"/><path d="M109.71,187v-.78l1.46-.34V178l-1.41-1v-.41l5.13-1.17v10.5l1.46.34V187ZM113,173.74a1.8,1.8,0,0,1-1.32-.55,1.88,1.88,0,0,1-.55-1.34,1.84,1.84,0,0,1,.55-1.33A1.77,1.77,0,0,1,113,170a1.84,1.84,0,0,1,1.35.56,1.79,1.79,0,0,1,.57,1.33,1.9,1.9,0,0,1-1.92,1.89Z"/><path d="M120.23,187.32a3.05,3.05,0,0,1-2.18-.82,2.76,2.76,0,0,1-.85-2.08,2.58,2.58,0,0,1,.93-2.11,7.84,7.84,0,0,1,3.08-1.27l2.17-.52v-1.78a3.07,3.07,0,0,0-.54-1.63,1.51,1.51,0,0,0-1.29-.63,1.38,1.38,0,0,0-.86.23l-.07,2.72a4,4,0,0,1-1.58.27,1.71,1.71,0,0,1-1.11-.34,1.2,1.2,0,0,1-.42-1c0-.72.57-1.4,1.7-2a7.77,7.77,0,0,1,3.87-1q3.93,0,3.93,3.63v5.86c0,.37,0,.6.17.7a1,1,0,0,0,.67.15h.82v.57a6.35,6.35,0,0,1-3.1,1,1.82,1.82,0,0,1-2.08-1.87h-.09A3.81,3.81,0,0,1,120.23,187.32Zm2-2a1.69,1.69,0,0,0,1.19-.55v-3.49l-.78.25c-1.31.41-2,1.11-2,2.1a1.76,1.76,0,0,0,.42,1.22A1.46,1.46,0,0,0,122.19,185.36Z"/><path d="M129,187v-.78l1.39-.34V178L129,177v-.41l4.52-1.3h.11l.21,2.14h.07a5.76,5.76,0,0,1,4.06-2.1,3.26,3.26,0,0,1,2.43.88,3.68,3.68,0,0,1,.85,2.66v7l1.42.36V187h-6.32v-.78l1.21-.34v-6.18a2.51,2.51,0,0,0-.52-1.58,1.64,1.64,0,0,0-1.38-.57,2.94,2.94,0,0,0-1.59.57v7.76l1.21.34V187Z"/><path d="M156,171.39a8.6,8.6,0,0,1,6,2.16,7.2,7.2,0,0,1,2.4,5.62,7.55,7.55,0,0,1-2.53,5.89,8.56,8.56,0,0,1-5.91,2.28,8.47,8.47,0,0,1-5.88-2.17,7.31,7.31,0,0,1-2.42-5.72,7.47,7.47,0,0,1,2.52-5.75A8.42,8.42,0,0,1,156,171.39Zm.32,15a3,3,0,0,0,2.68-1.73,9.8,9.8,0,0,0,1-4.8,11.07,11.07,0,0,0-1.2-5.31,3.59,3.59,0,0,0-3.15-2.24,3,3,0,0,0-2.68,1.7,9.72,9.72,0,0,0-1,4.8,10.77,10.77,0,0,0,1.24,5.39A3.61,3.61,0,0,0,156.27,186.41Z"/><path d="M165.42,187v-.78l1.39-.34V178l-1.37-.94v-.41l4.52-1.3h.12l.2,2.14h.07a5.78,5.78,0,0,1,4.06-2.1,3.26,3.26,0,0,1,2.43.88,3.68,3.68,0,0,1,.86,2.66v7l1.41.36V187h-6.32v-.78l1.21-.34v-6.18a2.57,2.57,0,0,0-.51-1.58,1.67,1.67,0,0,0-1.38-.57,3,3,0,0,0-1.6.57v7.76l1.21.34V187Z"/><path d="M185.11,187.27a5,5,0,0,1-3.91-1.69,6,6,0,0,1-1.5-4.17,5.88,5.88,0,0,1,1.78-4.29,5.52,5.52,0,0,1,4-1.78q4.18,0,4.75,4.93h-7.3a4.54,4.54,0,0,0,1.28,3.31,4.06,4.06,0,0,0,2.92,1.18,5.67,5.67,0,0,0,2.89-1l.37.44C188.87,186.25,187.12,187.27,185.11,187.27Zm-.39-11a1.43,1.43,0,0,0-1.22.79,5,5,0,0,0-.58,2.34h3.63a5.78,5.78,0,0,0-.58-2.27A1.4,1.4,0,0,0,184.72,176.3Z"/><path d="M79.52,198.33v-7.56h.78v7.56Z"/><path class="cls-4" d="M83.62,197.12v-5.63h1v5.63Z"/><path class="cls-4" d="M85.94,197.12v-5.63h2a2.73,2.73,0,0,1,2,.75,2.77,2.77,0,0,1,.77,2.07,2.63,2.63,0,0,1-2.75,2.81Zm2-.88a1.73,1.73,0,0,0,1.28-.49,1.93,1.93,0,0,0,.51-1.44,2,2,0,0,0-.5-1.45,1.76,1.76,0,0,0-1.28-.5h-1v3.88Z"/><path class="cls-4" d="M91.67,197.12v-5.63h3.48v.88H92.62v1.5h2.29v.86H92.62v1.5h2.53v.89Z"/><path class="cls-4" d="M100,197.12l-2.77-4.27v4.27h-1v-5.63h1.22l2.55,4v-4h1v5.63Z"/><path class="cls-4" d="M104.57,192.38v4.74h-.95v-4.74H101.8v-.89h4.61v.89Z"/><path class="cls-4" d="M107.19,197.12v-5.63h1v5.63Z"/><path class="cls-4" d="M109.51,197.12v-5.63H113v.89h-2.55V194h2.29v.88h-2.29v2.28Z"/><path class="cls-4" d="M113.37,191.49h1.13l1.35,2.35,1.36-2.35h1.07l-2,3.24v2.39h-1v-2.39Z"/><path d="M121,198.33v-7.56h.78v7.56Z"/><path class="cls-3" d="M125.59,196.43a3.12,3.12,0,0,1,0-4.25,2.78,2.78,0,0,1,2-.81,2.67,2.67,0,0,1,1.68.51,2.46,2.46,0,0,1,.86,1.31l-.9.3a1.63,1.63,0,0,0-.55-.89,1.69,1.69,0,0,0-1.09-.34,1.8,1.8,0,0,0-1.3.54,2,2,0,0,0-.55,1.5,2,2,0,0,0,.54,1.49,1.86,1.86,0,0,0,1.32.53,1.65,1.65,0,0,0,1.09-.36,1.77,1.77,0,0,0,.59-.88l.87.29a2.52,2.52,0,0,1-.87,1.32,2.57,2.57,0,0,1-1.68.54A2.75,2.75,0,0,1,125.59,196.43Z"/><path class="cls-3" d="M131.12,192.73a2.8,2.8,0,0,1,1.06-1,3,3,0,0,1,2.79,0,2.8,2.8,0,0,1,1.06,1,3,3,0,0,1,.41,1.57,3,3,0,0,1-.41,1.57,2.72,2.72,0,0,1-1.06,1,3,3,0,0,1-2.79,0,2.72,2.72,0,0,1-1.06-1,3,3,0,0,1-.4-1.57A3,3,0,0,1,131.12,192.73Zm1.13,3.06a1.9,1.9,0,0,0,2.65,0,1.92,1.92,0,0,0,.56-1.49,2,2,0,0,0-.56-1.5,1.9,1.9,0,0,0-2.65,0,2,2,0,0,0-.56,1.5A2,2,0,0,0,132.25,195.79Z"/><path class="cls-3" d="M142.7,197.12V193l-1.76,4.15h-.82L138.38,193v4.13h-.93v-5.63h1.27l1.83,4.29,1.8-4.29h1.29v5.63Z"/><path class="cls-3" d="M150.24,197.12V193l-1.75,4.15h-.83L145.92,193v4.13H145v-5.63h1.27l1.83,4.29,1.8-4.29h1.3v5.63Z"/><path class="cls-3" d="M153.06,196.69a2,2,0,0,1-.59-1.54v-3.66h.95v3.61a1.3,1.3,0,0,0,.3.91,1.15,1.15,0,0,0,.85.32,1.13,1.13,0,0,0,.85-.32,1.26,1.26,0,0,0,.3-.91v-3.61h.95v3.66a2,2,0,0,1-.59,1.54,2.38,2.38,0,0,1-3,0Z"/><path class="cls-3" d="M161.69,197.12l-2.78-4.27v4.27H158v-5.63h1.22l2.55,4v-4h1v5.63Z"/><path class="cls-3" d="M164,197.12v-5.63h1v5.63Z"/><path class="cls-3" d="M168.86,196.43a2.79,2.79,0,0,1-.83-2.13,2.82,2.82,0,0,1,.84-2.12,2.76,2.76,0,0,1,2-.81,2.62,2.62,0,0,1,1.67.51,2.42,2.42,0,0,1,.87,1.31l-.9.3a1.63,1.63,0,0,0-.55-.89,1.69,1.69,0,0,0-1.09-.34,1.78,1.78,0,0,0-1.3.54,2,2,0,0,0-.56,1.5,2,2,0,0,0,.55,1.49,1.86,1.86,0,0,0,1.32.53A1.65,1.65,0,0,0,172,196a1.84,1.84,0,0,0,.59-.88l.87.29a2.52,2.52,0,0,1-.87,1.32,2.57,2.57,0,0,1-1.68.54A2.75,2.75,0,0,1,168.86,196.43Z"/><path class="cls-3" d="M177.51,195.7h-2.38l-.53,1.42h-1l2.2-5.63h1.1l2.19,5.63h-1Zm-2-.88h1.72l-.86-2.3Z"/><path class="cls-3" d="M181.53,192.38v4.74h-1v-4.74h-1.82v-.89h4.61v.89Z"/><path class="cls-3" d="M184.14,197.12v-5.63h3.48v.88h-2.53v1.5h2.29v.86h-2.29v1.5h2.53v.89Z"/></g></svg>